<svg id="svg" version="1.1" xmlns="http://www.w3.org/2000/svg" xmlns:xlink="http://www.w3.org/1999/xlink" width="400" height="400" viewBox="0, 0, 400,400"><g id="svgg"><path id="path0" d="M225.600 0.282 C 224.390 0.355,223.040 0.589,222.600 0.802 C 222.160 1.014,221.125 1.251,220.301 1.326 C 219.477 1.402,218.682 1.585,218.534 1.732 C 218.387 1.880,217.577 2.000,216.733 2.000 C 215.890 2.000,215.200 2.180,215.200 2.400 C 215.200 2.620,214.480 2.800,213.600 2.800 C 212.720 2.800,212.000 2.980,212.000 3.200 C 212.000 3.420,211.460 3.600,210.800 3.600 C 210.140 3.600,209.599 3.735,209.597 3.900 C 209.592 4.348,207.573 5.200,206.515 5.200 C 205.596 5.200,204.374 5.746,203.177 6.692 C 202.835 6.963,202.164 7.109,201.686 7.017 C 201.208 6.924,200.712 7.018,200.585 7.225 C 200.457 7.431,200.003 7.600,199.576 7.600 C 199.149 7.600,198.800 7.780,198.800 8.000 C 198.800 8.220,198.440 8.400,198.000 8.400 C 197.560 8.400,197.199 8.625,197.197 8.900 C 197.192 9.634,195.124 10.524,194.766 9.946 C 194.583 9.649,194.173 9.855,193.571 10.547 C 193.068 11.126,192.418 11.600,192.128 11.600 C 191.838 11.600,191.600 11.755,191.600 11.945 C 191.600 12.134,191.150 12.203,190.600 12.098 C 189.855 11.956,189.600 12.078,189.600 12.577 C 189.600 12.946,189.444 13.151,189.253 13.033 C 189.063 12.915,188.585 13.175,188.191 13.609 C 187.798 14.044,187.054 14.400,186.538 14.400 C 185.929 14.400,185.600 14.634,185.600 15.067 C 185.600 15.433,185.477 15.611,185.328 15.461 C 185.178 15.311,184.565 15.659,183.965 16.233 C 183.365 16.808,182.772 17.276,182.647 17.274 C 181.688 17.257,180.831 17.823,180.636 18.601 C 180.463 19.288,180.197 19.472,179.602 19.316 C 179.153 19.199,178.800 19.303,178.800 19.553 C 178.800 19.799,178.530 20.000,178.200 20.000 C 177.870 20.000,177.600 20.276,177.600 20.613 C 177.600 21.377,175.483 23.494,174.910 23.303 C 174.404 23.135,167.600 29.729,167.600 30.388 C 167.600 30.641,167.825 30.719,168.100 30.562 C 168.375 30.405,168.240 30.642,167.800 31.087 C 167.360 31.533,166.865 31.820,166.700 31.725 C 166.535 31.630,166.400 31.743,166.400 31.976 C 166.400 32.209,166.207 32.400,165.971 32.400 C 165.190 32.400,164.347 33.581,164.474 34.497 C 164.569 35.174,164.377 35.432,163.708 35.527 C 163.051 35.620,162.705 36.067,162.393 37.227 C 162.127 38.214,161.734 38.800,161.338 38.800 C 160.904 38.800,160.772 39.050,160.916 39.600 C 161.071 40.193,160.928 40.400,160.363 40.400 C 159.548 40.400,159.337 40.990,160.003 41.402 C 160.476 41.694,159.511 42.800,158.782 42.800 C 158.504 42.800,158.393 43.132,158.516 43.601 C 158.631 44.041,158.573 44.307,158.386 44.191 C 158.199 44.076,157.730 44.661,157.344 45.491 C 156.958 46.321,156.474 47.115,156.269 47.256 C 156.064 47.396,155.973 48.034,156.067 48.673 C 156.192 49.525,155.994 50.043,155.323 50.617 C 154.785 51.078,154.407 51.853,154.404 52.500 C 154.402 53.105,154.220 53.600,154.000 53.600 C 153.780 53.600,153.600 54.140,153.600 54.800 C 153.600 55.460,153.438 56.000,153.240 56.000 C 153.042 56.000,152.880 56.669,152.880 57.487 C 152.880 58.304,152.682 59.039,152.440 59.120 C 152.198 59.201,152.000 59.792,152.000 60.433 C 152.000 61.075,151.820 61.600,151.600 61.600 C 151.374 61.600,151.200 62.733,151.200 64.200 C 151.200 65.667,151.026 66.800,150.800 66.800 C 150.555 66.800,150.400 68.707,150.400 71.720 C 150.400 75.013,150.241 76.799,149.920 77.120 C 149.547 77.493,149.547 77.707,149.920 78.080 C 150.284 78.444,150.400 85.253,150.400 106.280 L 150.400 134.000 126.243 134.000 C 100.735 134.000,101.224 133.968,101.513 135.629 C 101.535 135.755,101.158 135.845,100.676 135.829 C 99.991 135.806,99.827 135.996,99.925 136.700 C 99.994 137.195,99.859 137.600,99.625 137.600 C 99.391 137.600,99.200 138.050,99.200 138.600 C 99.200 139.150,98.975 139.600,98.700 139.600 C 98.039 139.600,98.145 207.995,98.807 208.404 C 99.038 208.547,99.118 208.948,98.985 209.296 C 98.714 210.000,100.243 212.000,101.052 212.000 C 101.332 212.000,101.718 212.281,101.910 212.625 C 102.221 213.181,104.845 213.246,125.733 213.213 L 149.207 213.176 149.103 305.188 C 149.026 374.157,149.115 397.200,149.459 397.200 C 149.711 397.200,150.470 397.830,151.146 398.600 L 152.376 400.000 193.225 400.000 C 233.813 400.000,234.076 399.995,234.285 399.196 C 234.401 398.753,234.941 398.280,235.484 398.143 C 236.265 397.947,236.435 397.695,236.292 396.947 C 236.192 396.426,236.266 396.000,236.455 396.000 C 236.647 396.000,236.800 355.677,236.800 305.100 L 236.800 214.200 263.100 214.309 C 290.077 214.422,290.329 214.409,291.900 212.929 C 292.175 212.669,292.400 212.174,292.400 211.829 C 292.400 211.483,292.591 211.200,292.824 211.200 C 293.057 211.200,293.145 211.035,293.020 210.832 C 292.895 210.630,293.064 210.193,293.396 209.861 C 293.774 209.483,294.000 208.506,294.000 207.252 C 294.000 206.149,294.180 205.136,294.400 205.000 C 294.620 204.864,294.800 203.233,294.800 201.376 C 294.800 199.392,294.965 198.000,295.200 198.000 C 295.433 198.000,295.600 196.667,295.600 194.800 C 295.600 192.933,295.767 191.600,296.000 191.600 C 296.235 191.600,296.400 190.200,296.400 188.200 C 296.400 186.225,296.566 184.800,296.796 184.800 C 297.046 184.800,297.098 183.479,296.936 181.200 C 296.721 178.169,296.774 177.600,297.274 177.600 C 297.765 177.600,297.836 177.047,297.683 174.407 C 297.532 171.794,297.609 171.171,298.109 170.979 C 298.613 170.786,298.682 170.187,298.503 167.572 C 298.313 164.804,298.370 164.400,298.945 164.400 C 299.526 164.400,299.574 163.998,299.344 161.010 C 299.129 158.206,299.187 157.580,299.680 157.391 C 300.162 157.206,300.240 156.575,300.083 154.128 C 299.924 151.654,300.003 151.030,300.513 150.745 C 301.028 150.457,301.097 149.859,300.907 147.348 C 300.716 144.812,300.784 144.241,301.316 143.943 C 302.019 143.550,302.222 139.784,301.562 139.376 C 301.363 139.253,301.200 138.733,301.200 138.219 C 301.200 137.706,300.928 137.181,300.596 137.054 C 300.264 136.927,300.039 136.597,300.096 136.321 C 300.153 136.045,299.804 135.758,299.319 135.684 C 298.834 135.610,298.327 135.201,298.192 134.775 C 297.952 134.017,297.261 134.000,267.373 134.000 L 236.800 134.000 236.800 112.449 C 236.800 93.269,236.870 90.840,237.434 90.372 C 237.913 89.974,238.006 89.437,237.817 88.172 C 237.616 86.834,237.698 86.448,238.225 86.246 C 238.692 86.066,238.814 85.711,238.643 85.028 C 238.401 84.064,239.466 81.608,240.129 81.603 C 240.765 81.598,241.638 80.410,241.520 79.709 C 241.437 79.220,241.620 79.037,242.109 79.120 C 242.884 79.250,243.696 78.594,244.110 77.500 C 244.365 76.825,245.018 76.628,246.500 76.779 C 246.885 76.818,247.200 76.659,247.200 76.425 C 247.200 76.191,247.560 76.000,248.000 76.000 C 248.440 76.000,248.800 75.820,248.800 75.600 C 248.800 75.380,249.700 75.200,250.800 75.200 C 251.916 75.200,252.800 75.016,252.800 74.785 C 252.800 74.502,259.910 74.384,275.074 74.417 L 297.348 74.465 298.019 73.575 C 298.388 73.085,298.850 72.782,299.045 72.900 C 299.474 73.161,300.454 72.187,300.109 71.843 C 299.976 71.709,300.189 71.600,300.583 71.600 C 301.166 71.600,301.255 71.376,301.060 70.400 C 300.898 69.589,300.979 69.200,301.310 69.200 C 301.984 69.200,301.853 5.387,301.178 4.573 C 300.932 4.277,300.847 3.847,300.989 3.618 C 301.131 3.388,300.983 3.200,300.661 3.200 C 300.267 3.200,300.145 2.931,300.289 2.382 C 300.525 1.478,299.344 0.301,298.500 0.599 C 298.225 0.696,298.000 0.601,298.000 0.387 C 298.000 0.031,231.326 -0.066,225.600 0.282 " stroke="none" fill="#fcfcf4" fill-rule="evenodd"></path><path id="path1" d="" stroke="none" fill="#100fcf4" fill-rule="evenodd"></path><path id="path2" d="" stroke="none" fill="#100fcf4" fill-rule="evenodd"></path><path id="path3" d="" stroke="none" fill="#100fcf4" fill-rule="evenodd"></path><path id="path4" d="" stroke="none" fill="#100fcf4" fill-rule="evenodd"></path><path id="path5" d="" stroke="none" fill="#100fcf4" fill-rule="evenodd"></path><path id="path6" d="" stroke="none" fill="#100fcf4" fill-rule="evenodd"></path><path id="path7" d="" stroke="none" fill="#100fcf4" fill-rule="evenodd"></path><path id="path8" d="" stroke="none" fill="#100fcf4" fill-rule="evenodd"></path></g></svg>