<svg id="svg" version="1.1" xmlns="http://www.w3.org/2000/svg" xmlns:xlink="http://www.w3.org/1999/xlink" width="400" height="400" viewBox="0, 0, 400,400"><g id="svgg"><path id="path0" d="M102.933 0.290 C 103.039 0.461,102.039 0.538,100.710 0.462 C 99.050 0.367,98.195 0.484,97.978 0.836 C 97.769 1.174,96.917 1.314,95.483 1.248 C 93.910 1.175,93.246 1.303,93.090 1.710 C 92.948 2.079,92.466 2.212,91.684 2.098 C 91.030 2.002,90.373 2.120,90.224 2.362 C 90.075 2.603,89.369 2.800,88.656 2.800 C 87.943 2.800,87.189 2.970,86.980 3.179 C 86.771 3.387,85.835 3.602,84.900 3.657 C 83.965 3.712,83.200 3.901,83.200 4.078 C 83.200 4.255,82.654 4.400,81.987 4.400 C 81.302 4.400,80.679 4.650,80.554 4.975 C 80.433 5.291,80.080 5.452,79.770 5.333 C 79.460 5.214,79.104 5.386,78.978 5.714 C 78.838 6.079,78.440 6.231,77.956 6.104 C 77.508 5.987,76.954 6.161,76.682 6.504 C 76.417 6.838,75.543 7.226,74.740 7.366 C 73.937 7.506,73.060 7.886,72.791 8.211 C 72.522 8.535,71.995 8.800,71.619 8.800 C 71.243 8.800,70.050 9.249,68.968 9.798 C 67.886 10.347,66.700 10.797,66.333 10.798 C 65.967 10.799,65.607 10.943,65.533 11.119 C 65.363 11.526,61.780 13.200,61.080 13.200 C 60.789 13.200,60.145 13.578,59.649 14.040 C 59.153 14.502,58.645 14.778,58.520 14.654 C 58.396 14.529,57.933 14.886,57.492 15.446 C 56.977 16.101,56.425 16.395,55.945 16.270 C 55.535 16.162,55.300 16.238,55.423 16.437 C 55.546 16.637,55.365 16.800,55.020 16.800 C 54.675 16.800,54.084 17.160,53.707 17.600 C 53.330 18.040,52.814 18.400,52.560 18.400 C 52.306 18.400,51.863 18.683,51.577 19.028 C 51.290 19.373,50.728 19.570,50.327 19.465 C 49.927 19.360,49.699 19.436,49.821 19.634 C 50.134 20.140,48.121 22.060,47.427 21.918 C 47.111 21.853,46.844 21.938,46.833 22.107 C 46.795 22.728,44.985 24.276,44.503 24.099 C 44.230 23.999,43.896 24.205,43.761 24.556 C 43.627 24.908,43.355 25.096,43.158 24.974 C 42.961 24.852,42.800 24.945,42.800 25.180 C 42.800 25.744,40.632 28.000,40.090 28.000 C 39.857 28.000,38.572 29.051,37.235 30.335 C 35.898 31.619,34.713 32.579,34.602 32.468 C 34.491 32.357,34.400 32.490,34.400 32.762 C 34.400 33.401,33.401 34.400,32.762 34.400 C 32.490 34.400,32.357 34.491,32.468 34.602 C 32.579 34.713,31.619 35.898,30.335 37.235 C 29.051 38.572,28.000 39.857,28.000 40.090 C 28.000 40.632,25.744 42.800,25.180 42.800 C 24.945 42.800,24.852 42.961,24.974 43.158 C 25.096 43.355,24.908 43.627,24.556 43.761 C 24.205 43.896,23.999 44.230,24.099 44.503 C 24.273 44.976,22.460 47.081,22.013 46.926 C 21.896 46.886,21.853 47.111,21.918 47.427 C 22.060 48.121,20.140 50.134,19.634 49.821 C 19.436 49.699,19.360 49.927,19.465 50.327 C 19.570 50.728,19.373 51.290,19.028 51.577 C 18.683 51.863,18.400 52.306,18.400 52.560 C 18.400 52.814,18.040 53.330,17.600 53.707 C 17.160 54.084,16.800 54.675,16.800 55.020 C 16.800 55.365,16.637 55.546,16.437 55.423 C 16.238 55.300,16.162 55.535,16.270 55.945 C 16.395 56.425,16.101 56.977,15.446 57.492 C 14.886 57.933,14.529 58.396,14.654 58.520 C 14.778 58.645,14.502 59.153,14.040 59.649 C 13.578 60.145,13.200 60.789,13.200 61.080 C 13.200 61.780,11.526 65.363,11.119 65.533 C 10.943 65.607,10.799 65.967,10.798 66.333 C 10.797 66.700,10.347 67.886,9.798 68.968 C 9.249 70.050,8.800 71.243,8.800 71.619 C 8.800 71.995,8.535 72.522,8.211 72.791 C 7.886 73.060,7.506 73.937,7.366 74.740 C 7.226 75.543,6.838 76.417,6.504 76.682 C 6.161 76.954,5.987 77.508,6.104 77.956 C 6.231 78.440,6.079 78.838,5.714 78.978 C 5.386 79.104,5.214 79.460,5.333 79.770 C 5.452 80.080,5.291 80.433,4.975 80.554 C 4.650 80.679,4.400 81.302,4.400 81.987 C 4.400 82.654,4.255 83.200,4.078 83.200 C 3.901 83.200,3.712 83.965,3.657 84.900 C 3.602 85.835,3.387 86.771,3.179 86.980 C 2.970 87.189,2.800 87.943,2.800 88.656 C 2.800 89.369,2.603 90.075,2.362 90.224 C 2.120 90.373,2.002 91.030,2.098 91.684 C 2.212 92.466,2.079 92.948,1.710 93.090 C 1.303 93.246,1.175 93.910,1.248 95.483 C 1.314 96.917,1.174 97.769,0.836 97.978 C 0.484 98.195,0.367 99.050,0.462 100.710 C 0.538 102.039,0.461 103.039,0.290 102.933 C -0.280 102.579,0.130 301.490,0.700 302.060 C 0.975 302.335,1.200 303.495,1.200 304.637 C 1.200 306.005,1.383 306.785,1.736 306.920 C 2.078 307.051,2.209 307.557,2.098 308.316 C 2.002 308.970,2.120 309.627,2.362 309.776 C 2.603 309.925,2.800 310.631,2.800 311.344 C 2.800 312.057,2.970 312.811,3.179 313.020 C 3.387 313.229,3.602 314.165,3.657 315.100 C 3.712 316.035,3.901 316.800,4.078 316.800 C 4.255 316.800,4.400 317.346,4.400 318.013 C 4.400 318.698,4.650 319.321,4.975 319.446 C 5.291 319.567,5.452 319.920,5.333 320.230 C 5.214 320.540,5.405 320.904,5.756 321.039 C 6.108 321.173,6.289 321.455,6.160 321.665 C 5.829 322.201,6.352 324.077,6.762 323.824 C 6.948 323.709,7.211 324.308,7.346 325.155 C 7.482 326.003,7.864 326.922,8.196 327.197 C 8.528 327.473,8.800 328.216,8.800 328.849 C 8.800 329.482,8.938 330.000,9.106 330.000 C 9.437 330.000,10.800 332.929,10.800 333.641 C 10.800 333.881,11.139 334.554,11.553 335.138 C 11.968 335.722,12.568 336.978,12.889 337.928 C 13.209 338.879,13.783 340.021,14.164 340.466 C 14.545 340.912,14.760 341.373,14.642 341.491 C 14.524 341.609,14.886 342.067,15.446 342.508 C 16.101 343.023,16.395 343.575,16.270 344.055 C 16.162 344.465,16.238 344.700,16.437 344.577 C 16.637 344.454,16.800 344.635,16.800 344.980 C 16.800 345.325,17.160 345.916,17.600 346.293 C 18.040 346.670,18.400 347.186,18.400 347.440 C 18.400 347.694,18.683 348.137,19.028 348.423 C 19.373 348.710,19.570 349.272,19.465 349.673 C 19.360 350.073,19.437 350.300,19.637 350.177 C 20.123 349.877,22.023 352.072,21.807 352.686 C 21.713 352.953,22.168 353.550,22.818 354.013 C 23.468 354.476,24.000 355.045,24.000 355.279 C 24.000 355.785,26.663 358.803,26.901 358.566 C 26.991 358.475,27.314 358.896,27.618 359.501 C 27.922 360.105,29.186 361.635,30.428 362.900 C 31.670 364.165,32.611 365.200,32.518 365.200 C 32.425 365.200,32.856 365.719,33.475 366.354 C 34.094 366.989,34.657 367.458,34.726 367.395 C 34.795 367.333,35.875 368.307,37.126 369.559 C 38.377 370.811,39.889 372.080,40.486 372.378 C 41.084 372.676,41.522 373.028,41.461 373.160 C 41.399 373.292,41.765 373.799,42.274 374.286 C 42.783 374.773,43.205 375.043,43.212 374.886 C 43.219 374.729,43.408 374.915,43.632 375.300 C 43.856 375.685,44.289 376.000,44.593 376.000 C 44.897 376.000,45.530 376.540,46.000 377.200 C 46.470 377.860,47.157 378.406,47.527 378.413 C 48.384 378.430,50.130 379.866,49.848 380.322 C 49.731 380.512,49.877 380.667,50.173 380.667 C 51.000 380.667,53.600 381.990,53.600 382.411 C 53.600 382.617,54.049 382.897,54.597 383.035 C 55.146 383.173,55.505 383.429,55.397 383.605 C 55.288 383.781,55.521 383.841,55.915 383.738 C 56.321 383.632,56.955 383.908,57.378 384.375 C 57.788 384.829,58.309 385.200,58.536 385.200 C 58.763 385.200,59.320 385.523,59.774 385.918 C 60.228 386.313,61.320 386.878,62.200 387.172 C 63.080 387.467,64.278 388.044,64.862 388.454 C 65.446 388.864,66.102 389.200,66.321 389.200 C 66.540 389.200,67.745 389.740,69.000 390.400 C 70.255 391.060,71.527 391.600,71.828 391.600 C 72.129 391.600,73.035 391.970,73.840 392.423 C 74.646 392.875,75.547 393.153,75.842 393.039 C 76.137 392.926,76.541 393.123,76.739 393.476 C 76.969 393.888,77.405 394.040,77.949 393.897 C 78.417 393.775,78.800 393.825,78.800 394.008 C 78.800 394.551,81.229 395.600,82.485 395.600 C 83.177 395.600,83.545 395.766,83.394 396.010 C 83.255 396.235,83.289 396.382,83.470 396.336 C 84.228 396.143,89.621 396.911,89.825 397.241 C 89.947 397.438,90.667 397.600,91.424 397.600 C 92.181 397.600,92.800 397.780,92.800 398.000 C 92.800 398.220,93.779 398.400,94.976 398.400 C 96.173 398.400,97.264 398.580,97.400 398.800 C 97.536 399.020,98.807 399.200,100.224 399.200 C 101.675 399.200,102.800 399.375,102.800 399.600 C 102.800 399.866,135.392 400.000,199.776 400.000 C 263.996 400.000,296.836 399.865,297.000 399.600 C 297.136 399.380,298.407 399.200,299.824 399.200 C 301.275 399.200,302.400 399.025,302.400 398.800 C 302.400 398.580,303.379 398.400,304.576 398.400 C 305.773 398.400,306.864 398.220,307.000 398.000 C 307.136 397.780,307.856 397.600,308.600 397.600 C 309.344 397.600,310.053 397.438,310.175 397.241 C 310.373 396.920,315.754 396.141,316.500 396.326 C 316.665 396.367,316.800 396.220,316.800 396.000 C 316.800 395.780,317.245 395.600,317.788 395.600 C 318.331 395.600,319.417 395.240,320.200 394.800 C 320.983 394.360,321.934 393.994,322.312 393.987 C 322.690 393.981,324.075 393.441,325.390 392.787 C 326.704 392.134,328.026 391.600,328.328 391.600 C 328.629 391.600,329.860 391.060,331.063 390.400 C 332.265 389.740,333.435 389.200,333.663 389.200 C 333.890 389.200,334.554 388.864,335.138 388.454 C 335.722 388.044,336.920 387.467,337.800 387.172 C 338.680 386.878,339.804 386.282,340.298 385.850 C 340.793 385.417,341.311 385.178,341.452 385.318 C 341.592 385.458,342.067 385.114,342.508 384.554 C 343.023 383.899,343.575 383.605,344.055 383.730 C 344.465 383.838,344.712 383.781,344.603 383.605 C 344.495 383.429,344.854 383.173,345.403 383.035 C 345.951 382.897,346.400 382.617,346.400 382.411 C 346.400 381.986,349.004 380.667,349.844 380.667 C 350.150 380.667,350.308 380.575,350.196 380.463 C 349.901 380.168,351.649 378.400,352.236 378.400 C 352.509 378.400,353.242 377.860,353.865 377.200 C 354.488 376.540,355.185 376.000,355.414 376.000 C 355.643 376.000,356.717 375.100,357.800 374.000 C 358.883 372.900,359.966 372.000,360.205 372.000 C 360.444 372.000,361.760 370.875,363.130 369.500 C 366.205 366.413,366.413 366.205,369.500 363.130 C 370.875 361.760,372.000 360.444,372.000 360.205 C 372.000 359.966,372.900 358.883,374.000 357.800 C 375.100 356.717,376.000 355.643,376.000 355.414 C 376.000 355.185,376.540 354.488,377.200 353.865 C 377.860 353.242,378.400 352.509,378.400 352.236 C 378.400 351.649,380.168 349.901,380.463 350.196 C 380.575 350.308,380.667 350.150,380.667 349.844 C 380.667 349.004,381.986 346.400,382.411 346.400 C 382.617 346.400,382.897 345.951,383.035 345.403 C 383.173 344.854,383.429 344.495,383.605 344.603 C 383.781 344.712,383.838 344.465,383.730 344.055 C 383.605 343.575,383.899 343.023,384.554 342.508 C 385.114 342.067,385.458 341.592,385.318 341.452 C 385.178 341.311,385.417 340.793,385.850 340.298 C 386.282 339.804,386.878 338.680,387.172 337.800 C 387.467 336.920,388.044 335.722,388.454 335.138 C 388.864 334.554,389.200 333.890,389.200 333.663 C 389.200 333.435,389.740 332.265,390.400 331.063 C 391.060 329.860,391.600 328.629,391.600 328.328 C 391.600 328.026,392.134 326.704,392.787 325.390 C 393.441 324.075,393.981 322.690,393.987 322.312 C 393.994 321.934,394.360 320.983,394.800 320.200 C 395.240 319.417,395.600 318.331,395.600 317.788 C 395.600 317.245,395.780 316.800,396.000 316.800 C 396.220 316.800,396.367 316.665,396.326 316.500 C 396.141 315.754,396.920 310.373,397.241 310.175 C 397.438 310.053,397.600 309.344,397.600 308.600 C 397.600 307.856,397.780 307.136,398.000 307.000 C 398.220 306.864,398.400 305.773,398.400 304.576 C 398.400 303.379,398.580 302.400,398.800 302.400 C 399.025 302.400,399.200 301.275,399.200 299.824 C 399.200 298.407,399.380 297.136,399.600 297.000 C 400.155 296.657,400.155 102.800,399.600 102.800 C 399.375 102.800,399.200 101.675,399.200 100.224 C 399.200 98.807,399.020 97.536,398.800 97.400 C 398.580 97.264,398.400 96.173,398.400 94.976 C 398.400 93.779,398.220 92.800,398.000 92.800 C 397.780 92.800,397.600 92.181,397.600 91.424 C 397.600 90.667,397.438 89.947,397.241 89.825 C 396.911 89.621,396.143 84.228,396.336 83.470 C 396.382 83.289,396.235 83.255,396.010 83.394 C 395.766 83.545,395.600 83.177,395.600 82.485 C 395.600 81.229,394.551 78.800,394.008 78.800 C 393.825 78.800,393.775 78.417,393.897 77.949 C 394.040 77.405,393.888 76.969,393.476 76.739 C 393.123 76.541,392.926 76.137,393.039 75.842 C 393.153 75.547,392.875 74.646,392.423 73.840 C 391.970 73.035,391.600 72.129,391.600 71.828 C 391.600 71.527,391.060 70.255,390.400 69.000 C 389.740 67.745,389.200 66.540,389.200 66.321 C 389.200 66.102,388.864 65.446,388.454 64.862 C 388.044 64.278,387.467 63.080,387.172 62.200 C 386.878 61.320,386.313 60.228,385.918 59.774 C 385.523 59.320,385.200 58.763,385.200 58.536 C 385.200 58.309,384.829 57.788,384.375 57.378 C 383.908 56.955,383.632 56.321,383.738 55.915 C 383.841 55.521,383.781 55.288,383.605 55.397 C 383.429 55.505,383.173 55.146,383.035 54.597 C 382.897 54.049,382.617 53.600,382.411 53.600 C 381.990 53.600,380.667 51.000,380.667 50.173 C 380.667 49.877,380.512 49.731,380.322 49.848 C 379.866 50.130,378.430 48.384,378.413 47.527 C 378.406 47.157,377.860 46.470,377.200 46.000 C 376.540 45.530,376.000 44.897,376.000 44.593 C 376.000 44.289,375.685 43.856,375.300 43.632 C 374.915 43.408,374.729 43.219,374.886 43.212 C 375.043 43.205,374.773 42.783,374.286 42.274 C 373.799 41.765,373.292 41.399,373.160 41.461 C 373.028 41.522,372.676 41.084,372.378 40.486 C 372.080 39.889,370.799 38.365,369.532 37.100 C 368.266 35.835,367.324 34.800,367.440 34.800 C 367.556 34.800,367.144 34.281,366.525 33.646 C 365.906 33.011,365.353 32.533,365.295 32.584 C 365.237 32.635,364.157 31.663,362.895 30.423 C 361.633 29.184,360.105 27.922,359.501 27.618 C 358.896 27.314,358.475 26.991,358.566 26.901 C 358.803 26.663,355.785 24.000,355.279 24.000 C 355.045 24.000,354.476 23.468,354.013 22.818 C 353.550 22.168,352.953 21.713,352.686 21.807 C 352.072 22.023,349.877 20.123,350.177 19.637 C 350.300 19.437,350.073 19.360,349.673 19.465 C 349.272 19.570,348.710 19.373,348.423 19.028 C 348.137 18.683,347.694 18.400,347.440 18.400 C 347.186 18.400,346.670 18.040,346.293 17.600 C 345.916 17.160,345.325 16.800,344.980 16.800 C 344.635 16.800,344.454 16.637,344.577 16.437 C 344.700 16.238,344.465 16.162,344.055 16.270 C 343.575 16.395,343.023 16.101,342.508 15.446 C 342.067 14.886,341.609 14.524,341.491 14.642 C 341.373 14.760,340.912 14.545,340.466 14.164 C 340.021 13.783,338.879 13.209,337.928 12.889 C 336.978 12.568,335.722 11.968,335.138 11.553 C 334.554 11.139,333.881 10.800,333.641 10.800 C 332.929 10.800,330.000 9.437,330.000 9.106 C 330.000 8.938,329.482 8.800,328.849 8.800 C 328.216 8.800,327.473 8.528,327.197 8.196 C 326.922 7.864,326.003 7.482,325.155 7.346 C 324.308 7.211,323.709 6.948,323.824 6.762 C 324.077 6.352,322.201 5.829,321.665 6.160 C 321.455 6.289,321.173 6.108,321.039 5.756 C 320.904 5.405,320.540 5.214,320.230 5.333 C 319.920 5.452,319.567 5.291,319.446 4.975 C 319.321 4.650,318.698 4.400,318.013 4.400 C 317.346 4.400,316.800 4.255,316.800 4.078 C 316.800 3.901,316.035 3.712,315.100 3.657 C 314.165 3.602,313.229 3.387,313.020 3.179 C 312.811 2.970,312.057 2.800,311.344 2.800 C 310.631 2.800,309.925 2.603,309.776 2.362 C 309.627 2.120,308.970 2.002,308.316 2.098 C 307.557 2.209,307.051 2.078,306.920 1.736 C 306.785 1.383,306.005 1.200,304.637 1.200 C 303.495 1.200,302.335 0.975,302.060 0.700 C 301.490 0.130,102.579 -0.280,102.933 0.290 M283.500 31.700 C 283.424 32.078,284.753 32.216,288.956 32.268 C 292.744 32.314,294.606 32.486,294.806 32.810 C 294.990 33.107,295.851 33.231,297.117 33.142 C 298.226 33.064,299.104 33.164,299.067 33.365 C 299.030 33.566,299.965 33.687,301.143 33.633 C 302.597 33.567,303.201 33.675,303.020 33.968 C 302.846 34.250,303.309 34.400,304.353 34.400 C 305.233 34.400,306.064 34.580,306.200 34.800 C 306.336 35.020,306.887 35.200,307.424 35.200 C 307.961 35.200,308.400 35.380,308.400 35.600 C 308.400 35.820,308.929 36.000,309.576 36.000 C 310.223 36.000,310.864 36.180,311.000 36.400 C 311.136 36.620,311.697 36.800,312.247 36.800 C 312.812 36.800,313.140 36.974,313.000 37.200 C 312.853 37.439,313.337 37.600,314.200 37.600 C 315.063 37.600,315.547 37.761,315.400 38.000 C 315.264 38.220,315.472 38.400,315.862 38.400 C 316.649 38.400,324.696 42.312,325.529 43.100 C 325.819 43.375,326.145 43.600,326.252 43.600 C 326.359 43.600,326.312 43.375,326.147 43.100 C 325.943 42.760,326.063 42.776,326.523 43.149 C 326.895 43.451,327.200 43.967,327.200 44.296 C 327.200 44.690,327.464 44.824,327.974 44.691 C 328.422 44.574,328.838 44.723,328.962 45.044 C 329.079 45.350,329.429 45.600,329.738 45.600 C 330.048 45.600,330.526 45.870,330.800 46.200 C 331.074 46.530,331.544 46.800,331.845 46.800 C 332.147 46.800,332.909 47.340,333.540 48.000 C 334.171 48.660,334.802 49.200,334.943 49.200 C 335.084 49.200,335.538 49.538,335.950 49.950 C 336.363 50.363,336.858 50.768,337.050 50.850 C 337.243 50.933,338.043 51.731,338.830 52.623 C 339.616 53.516,340.431 54.190,340.642 54.119 C 341.134 53.955,346.129 59.059,345.890 59.481 C 345.790 59.656,346.484 60.430,347.432 61.200 C 348.379 61.970,349.258 62.886,349.384 63.235 C 349.510 63.584,350.150 64.472,350.806 65.207 C 351.463 65.942,352.000 66.692,352.000 66.872 C 352.000 67.052,352.264 67.200,352.587 67.200 C 352.912 67.200,353.083 67.438,352.971 67.732 C 352.859 68.024,353.207 68.594,353.745 68.998 C 354.284 69.402,354.632 69.971,354.520 70.263 C 354.409 70.555,354.586 70.896,354.914 71.022 C 355.273 71.160,355.431 71.561,355.309 72.026 C 355.171 72.556,355.311 72.800,355.753 72.800 C 356.109 72.800,356.400 73.081,356.400 73.424 C 356.400 73.767,356.565 73.945,356.767 73.820 C 356.970 73.695,357.251 74.122,357.393 74.769 C 357.535 75.416,357.910 76.159,358.226 76.421 C 358.542 76.683,358.800 77.236,358.800 77.649 C 358.800 78.062,358.936 78.400,359.102 78.400 C 359.613 78.400,360.477 80.750,360.165 81.291 C 360.004 81.571,360.018 81.668,360.196 81.506 C 360.592 81.148,361.600 82.990,361.600 84.069 C 361.600 84.497,361.780 84.736,362.000 84.600 C 362.239 84.453,362.400 84.937,362.400 85.800 C 362.400 86.663,362.561 87.147,362.800 87.000 C 363.026 86.860,363.200 87.188,363.200 87.753 C 363.200 88.303,363.380 88.864,363.600 89.000 C 363.820 89.136,364.000 89.777,364.000 90.424 C 364.000 91.071,364.180 91.600,364.400 91.600 C 364.620 91.600,364.800 92.039,364.800 92.576 C 364.800 93.113,364.980 93.664,365.200 93.800 C 365.420 93.936,365.600 94.767,365.600 95.647 C 365.600 96.527,365.761 97.148,365.957 97.027 C 366.153 96.905,366.445 98.650,366.605 100.903 C 366.765 103.156,367.074 105.113,367.293 105.251 C 367.527 105.399,367.664 107.543,367.626 110.469 C 367.565 115.200,367.772 116.988,368.342 116.636 C 368.484 116.548,368.600 154.064,368.600 200.005 C 368.600 255.468,368.466 283.511,368.200 283.467 C 367.952 283.425,367.774 285.522,367.732 288.989 C 367.689 292.582,367.510 294.630,367.232 294.723 C 366.995 294.802,366.800 295.722,366.800 296.767 C 366.800 297.812,366.676 298.791,366.524 298.943 C 366.372 299.094,366.297 300.134,366.356 301.253 C 366.429 302.630,366.324 303.201,366.032 303.020 C 365.747 302.844,365.600 303.373,365.600 304.576 C 365.600 305.579,365.420 306.400,365.200 306.400 C 364.980 306.400,364.800 306.839,364.800 307.376 C 364.800 307.913,364.620 308.464,364.400 308.600 C 364.180 308.736,364.000 309.276,364.000 309.800 C 364.000 310.324,363.820 310.864,363.600 311.000 C 363.380 311.136,363.200 311.597,363.200 312.024 C 363.200 312.451,363.020 312.800,362.800 312.800 C 362.580 312.800,362.400 313.441,362.400 314.224 C 362.400 315.071,362.238 315.547,362.000 315.400 C 361.780 315.264,361.600 315.503,361.600 315.931 C 361.600 317.010,360.592 318.852,360.196 318.494 C 360.018 318.332,360.007 318.434,360.173 318.721 C 360.467 319.231,358.701 323.367,358.005 323.797 C 357.816 323.914,357.541 324.559,357.393 325.230 C 357.228 325.981,356.744 326.625,356.136 326.902 C 355.451 327.214,355.207 327.583,355.342 328.101 C 355.456 328.537,355.291 328.944,354.946 329.076 C 354.620 329.201,354.437 329.520,354.539 329.785 C 354.641 330.050,354.291 330.592,353.762 330.990 C 353.233 331.387,352.800 331.957,352.800 332.256 C 352.800 332.555,352.590 332.800,352.333 332.800 C 352.077 332.800,351.983 332.917,352.126 333.060 C 352.269 333.202,351.916 333.723,351.342 334.216 C 350.762 334.714,350.423 335.314,350.579 335.566 C 350.733 335.816,350.711 335.970,350.530 335.910 C 350.348 335.849,350.110 335.977,350.000 336.194 C 349.890 336.411,348.870 337.431,347.733 338.461 C 346.596 339.490,345.771 340.438,345.900 340.566 C 346.028 340.695,344.933 342.000,343.467 343.467 C 342.000 344.933,340.695 346.028,340.566 345.900 C 340.438 345.771,339.409 346.686,338.280 347.933 C 337.150 349.180,336.131 350.200,336.013 350.200 C 335.896 350.200,335.849 350.348,335.910 350.530 C 335.970 350.711,335.816 350.733,335.566 350.579 C 335.314 350.423,334.714 350.762,334.216 351.342 C 333.723 351.916,333.202 352.269,333.060 352.126 C 332.917 351.983,332.800 352.077,332.800 352.333 C 332.800 352.590,332.555 352.800,332.256 352.800 C 331.957 352.800,331.387 353.233,330.990 353.762 C 330.592 354.291,330.050 354.641,329.785 354.539 C 329.520 354.437,329.201 354.620,329.076 354.946 C 328.944 355.291,328.537 355.456,328.101 355.342 C 327.583 355.207,327.214 355.451,326.902 356.136 C 326.625 356.744,325.981 357.228,325.230 357.393 C 324.559 357.541,323.914 357.816,323.797 358.005 C 323.367 358.701,319.231 360.467,318.721 360.173 C 318.434 360.007,318.332 360.018,318.494 360.196 C 318.852 360.592,317.010 361.600,315.931 361.600 C 315.503 361.600,315.264 361.780,315.400 362.000 C 315.547 362.238,315.071 362.400,314.224 362.400 C 313.441 362.400,312.800 362.580,312.800 362.800 C 312.800 363.020,312.451 363.200,312.024 363.200 C 311.597 363.200,311.136 363.380,311.000 363.600 C 310.864 363.820,310.324 364.000,309.800 364.000 C 309.276 364.000,308.736 364.180,308.600 364.400 C 308.464 364.620,307.913 364.800,307.376 364.800 C 306.839 364.800,306.400 364.980,306.400 365.200 C 306.400 365.420,305.579 365.600,304.576 365.600 C 303.373 365.600,302.844 365.747,303.020 366.032 C 303.201 366.324,302.630 366.429,301.253 366.356 C 300.134 366.297,299.094 366.372,298.943 366.524 C 298.791 366.676,297.812 366.800,296.767 366.800 C 295.722 366.800,294.802 366.995,294.723 367.232 C 294.630 367.510,292.582 367.689,288.989 367.732 C 285.522 367.774,283.425 367.952,283.467 368.200 C 283.511 368.466,255.468 368.600,200.005 368.600 C 154.064 368.600,116.548 368.484,116.636 368.342 C 116.988 367.772,115.200 367.565,110.469 367.626 C 107.543 367.664,105.399 367.527,105.251 367.293 C 105.113 367.074,103.156 366.765,100.903 366.605 C 98.650 366.445,96.905 366.153,97.027 365.957 C 97.148 365.761,96.527 365.600,95.647 365.600 C 94.767 365.600,93.936 365.420,93.800 365.200 C 93.664 364.980,93.113 364.800,92.576 364.800 C 92.039 364.800,91.600 364.620,91.600 364.400 C 91.600 364.180,91.071 364.000,90.424 364.000 C 89.777 364.000,89.136 363.820,89.000 363.600 C 88.864 363.380,88.303 363.200,87.753 363.200 C 87.188 363.200,86.860 363.026,87.000 362.800 C 87.147 362.561,86.663 362.400,85.800 362.400 C 84.937 362.400,84.453 362.239,84.600 362.000 C 84.736 361.780,84.497 361.600,84.069 361.600 C 82.990 361.600,81.148 360.592,81.506 360.196 C 81.668 360.018,81.571 360.004,81.291 360.165 C 80.750 360.477,78.400 359.613,78.400 359.102 C 78.400 358.936,78.062 358.800,77.649 358.800 C 77.236 358.800,76.683 358.542,76.421 358.226 C 76.159 357.910,75.416 357.535,74.769 357.393 C 74.122 357.251,73.695 356.970,73.820 356.767 C 73.945 356.565,73.767 356.400,73.424 356.400 C 73.081 356.400,72.800 356.109,72.800 355.753 C 72.800 355.311,72.556 355.171,72.026 355.309 C 71.561 355.431,71.160 355.273,71.022 354.914 C 70.896 354.586,70.555 354.409,70.263 354.520 C 69.971 354.632,69.402 354.284,68.998 353.745 C 68.594 353.207,68.024 352.859,67.732 352.971 C 67.438 353.083,67.200 352.912,67.200 352.587 C 67.200 352.264,67.052 352.000,66.872 352.000 C 66.692 352.000,65.942 351.463,65.207 350.806 C 64.472 350.150,63.584 349.510,63.235 349.384 C 62.886 349.258,61.970 348.379,61.200 347.432 C 60.430 346.484,59.656 345.790,59.481 345.890 C 59.059 346.129,53.955 341.134,54.119 340.642 C 54.190 340.431,53.516 339.616,52.623 338.830 C 51.731 338.043,50.932 337.243,50.850 337.050 C 50.767 336.858,50.362 336.363,49.950 335.950 C 49.538 335.538,49.200 335.084,49.200 334.943 C 49.200 334.802,48.660 334.171,48.000 333.540 C 47.340 332.909,46.800 332.147,46.800 331.845 C 46.800 331.544,46.530 331.074,46.200 330.800 C 45.870 330.526,45.600 330.048,45.600 329.738 C 45.600 329.429,45.350 329.079,45.044 328.962 C 44.723 328.838,44.574 328.422,44.691 327.974 C 44.824 327.464,44.690 327.200,44.296 327.200 C 43.967 327.200,43.451 326.895,43.149 326.523 C 42.776 326.063,42.760 325.943,43.100 326.147 C 43.375 326.312,43.600 326.359,43.600 326.252 C 43.600 326.145,43.375 325.819,43.100 325.529 C 42.312 324.696,38.400 316.649,38.400 315.862 C 38.400 315.472,38.220 315.264,38.000 315.400 C 37.761 315.547,37.600 315.063,37.600 314.200 C 37.600 313.337,37.439 312.853,37.200 313.000 C 36.974 313.140,36.800 312.812,36.800 312.247 C 36.800 311.697,36.620 311.136,36.400 311.000 C 36.180 310.864,36.000 310.223,36.000 309.576 C 36.000 308.929,35.820 308.400,35.600 308.400 C 35.380 308.400,35.200 307.961,35.200 307.424 C 35.200 306.887,35.020 306.336,34.800 306.200 C 34.580 306.064,34.400 305.233,34.400 304.353 C 34.400 303.309,34.250 302.846,33.968 303.020 C 33.675 303.201,33.567 302.597,33.633 301.143 C 33.687 299.965,33.566 299.030,33.365 299.067 C 33.164 299.104,33.064 298.226,33.142 297.117 C 33.231 295.851,33.107 294.990,32.810 294.806 C 32.486 294.606,32.314 292.744,32.268 288.956 C 32.226 285.511,32.048 283.425,31.800 283.467 C 31.221 283.563,31.438 117.689,32.019 116.581 C 32.280 116.083,32.399 113.773,32.324 110.685 C 32.238 107.158,32.339 105.554,32.655 105.434 C 32.924 105.331,33.227 103.621,33.398 101.230 C 33.556 99.013,33.847 97.200,34.043 97.200 C 34.239 97.200,34.400 96.491,34.400 95.624 C 34.400 94.757,34.580 93.936,34.800 93.800 C 35.020 93.664,35.200 93.113,35.200 92.576 C 35.200 92.039,35.380 91.600,35.600 91.600 C 35.820 91.600,36.000 91.071,36.000 90.424 C 36.000 89.777,36.180 89.136,36.400 89.000 C 36.620 88.864,36.800 88.403,36.800 87.976 C 36.800 87.549,36.942 87.200,37.115 87.200 C 37.288 87.200,37.470 86.678,37.518 86.039 C 37.623 84.669,38.566 82.699,38.939 83.073 C 39.083 83.216,39.200 82.949,39.200 82.479 C 39.200 82.009,39.543 81.014,39.962 80.267 C 40.965 78.482,41.393 77.649,42.053 76.200 C 42.354 75.540,42.825 74.762,43.100 74.471 C 43.375 74.181,43.600 73.686,43.600 73.371 C 43.600 73.057,43.776 72.800,43.990 72.800 C 44.205 72.800,44.756 72.035,45.215 71.100 C 46.466 68.554,46.895 67.884,48.100 66.590 C 48.705 65.940,49.202 65.226,49.205 65.004 C 49.208 64.782,50.351 63.478,51.744 62.106 C 53.138 60.734,54.181 59.514,54.062 59.395 C 53.771 59.104,58.889 53.963,59.325 54.108 C 59.513 54.171,60.777 53.095,62.134 51.716 C 63.490 50.338,64.782 49.208,65.004 49.205 C 65.226 49.202,65.940 48.705,66.590 48.100 C 67.884 46.895,68.554 46.466,71.100 45.215 C 72.035 44.756,72.800 44.205,72.800 43.990 C 72.800 43.776,73.057 43.600,73.371 43.600 C 73.686 43.600,74.181 43.375,74.471 43.100 C 74.762 42.825,75.540 42.354,76.200 42.053 C 77.649 41.393,78.482 40.965,80.267 39.962 C 81.014 39.543,82.009 39.200,82.479 39.200 C 82.949 39.200,83.216 39.083,83.073 38.939 C 82.699 38.566,84.669 37.623,86.039 37.518 C 86.678 37.470,87.200 37.288,87.200 37.115 C 87.200 36.942,87.549 36.800,87.976 36.800 C 88.403 36.800,88.864 36.620,89.000 36.400 C 89.136 36.180,89.777 36.000,90.424 36.000 C 91.071 36.000,91.600 35.820,91.600 35.600 C 91.600 35.380,92.039 35.200,92.576 35.200 C 93.113 35.200,93.664 35.020,93.800 34.800 C 93.936 34.580,94.757 34.400,95.624 34.400 C 96.491 34.400,97.200 34.239,97.200 34.043 C 97.200 33.847,99.013 33.556,101.230 33.398 C 103.621 33.227,105.331 32.924,105.434 32.655 C 105.554 32.339,107.158 32.238,110.685 32.324 C 113.777 32.400,116.083 32.280,116.581 32.018 C 117.155 31.717,142.195 31.560,200.400 31.493 C 246.050 31.441,283.445 31.354,283.500 31.299 C 283.555 31.245,283.555 31.425,283.500 31.700 M304.638 75.446 C 304.469 75.885,304.068 76.030,303.385 75.899 C 302.742 75.776,302.257 75.927,302.039 76.315 C 301.841 76.670,301.429 76.820,301.050 76.674 C 300.629 76.513,300.400 76.636,300.400 77.022 C 300.400 77.351,299.995 77.776,299.500 77.967 C 298.467 78.367,297.041 79.857,296.658 80.938 C 296.514 81.344,296.058 81.764,295.644 81.872 C 295.155 82.000,294.959 82.320,295.081 82.789 C 295.185 83.186,295.074 83.631,294.835 83.778 C 294.596 83.926,294.400 84.476,294.400 85.000 C 294.400 85.524,294.220 86.064,294.000 86.200 C 293.482 86.520,293.470 95.088,293.987 95.267 C 294.200 95.340,294.418 95.973,294.470 96.672 C 294.523 97.372,294.709 97.856,294.883 97.749 C 295.057 97.641,295.200 97.799,295.200 98.101 C 295.200 98.402,295.560 99.036,296.000 99.508 C 296.440 99.980,296.800 100.499,296.800 100.661 C 296.800 101.080,298.881 103.200,299.292 103.200 C 299.480 103.200,300.020 103.560,300.492 104.000 C 300.964 104.440,301.587 104.800,301.875 104.800 C 302.164 104.800,302.400 104.980,302.400 105.200 C 302.400 105.420,302.940 105.600,303.600 105.600 C 304.260 105.600,304.800 105.780,304.800 106.000 C 304.800 106.245,306.675 106.400,309.624 106.400 C 312.737 106.400,314.360 106.258,314.200 106.000 C 314.056 105.767,314.463 105.600,315.176 105.600 C 315.849 105.600,316.400 105.399,316.400 105.153 C 316.400 104.904,316.753 104.799,317.201 104.916 C 317.641 105.031,317.920 104.994,317.821 104.834 C 317.626 104.519,319.005 103.200,319.530 103.200 C 319.932 103.200,322.000 101.064,322.000 100.650 C 322.000 100.220,323.066 99.199,323.286 99.419 C 323.385 99.519,323.480 99.375,323.496 99.100 C 323.531 98.523,324.346 96.124,324.854 95.105 C 325.360 94.091,325.277 87.027,324.744 85.719 C 323.484 82.629,323.039 81.773,322.542 81.480 C 322.244 81.304,322.000 80.933,322.000 80.655 C 322.000 80.053,320.090 78.219,319.100 77.871 C 318.715 77.736,318.400 77.439,318.400 77.213 C 318.400 76.986,318.051 76.800,317.624 76.800 C 317.197 76.800,316.736 76.620,316.600 76.400 C 316.464 76.180,315.991 76.000,315.548 76.000 C 315.105 76.000,314.473 75.730,314.143 75.400 C 313.234 74.491,304.989 74.531,304.638 75.446 M187.430 92.752 C 187.310 92.945,184.960 93.233,182.206 93.392 C 179.453 93.551,177.200 93.842,177.200 94.040 C 177.200 94.238,176.469 94.400,175.576 94.400 C 174.596 94.400,174.051 94.558,174.200 94.800 C 174.347 95.038,173.879 95.200,173.047 95.200 C 172.277 95.200,171.536 95.380,171.400 95.600 C 171.264 95.820,170.634 96.000,170.000 96.000 C 169.366 96.000,168.736 96.180,168.600 96.400 C 168.464 96.620,167.913 96.800,167.376 96.800 C 166.839 96.800,166.400 96.980,166.400 97.200 C 166.400 97.420,165.759 97.600,164.976 97.600 C 164.129 97.600,163.653 97.762,163.800 98.000 C 163.940 98.226,163.612 98.400,163.047 98.400 C 162.497 98.400,161.936 98.580,161.800 98.800 C 161.664 99.020,161.124 99.200,160.600 99.200 C 160.076 99.200,159.528 99.392,159.383 99.627 C 159.238 99.862,158.889 99.966,158.608 99.859 C 158.327 99.751,157.941 99.811,157.749 99.994 C 156.905 100.794,154.299 101.995,153.227 102.077 C 152.582 102.126,152.136 102.296,152.234 102.454 C 152.332 102.613,152.004 102.805,151.506 102.881 C 151.008 102.957,150.639 103.221,150.686 103.468 C 150.737 103.731,150.445 103.832,149.986 103.712 C 149.551 103.599,149.200 103.706,149.200 103.953 C 149.200 104.199,148.924 104.400,148.587 104.400 C 148.251 104.400,147.867 104.680,147.736 105.023 C 147.604 105.366,147.241 105.548,146.928 105.428 C 146.615 105.307,146.457 105.368,146.576 105.562 C 146.696 105.756,146.338 106.029,145.781 106.169 C 145.223 106.309,144.875 106.598,145.007 106.812 C 145.139 107.025,144.877 107.200,144.424 107.200 C 143.971 107.200,143.600 107.391,143.600 107.624 C 143.600 107.857,143.439 107.948,143.242 107.826 C 143.045 107.704,142.773 107.892,142.639 108.244 C 142.494 108.620,142.139 108.785,141.776 108.646 C 141.420 108.510,141.263 108.578,141.405 108.807 C 141.540 109.026,141.324 109.321,140.925 109.461 C 140.526 109.602,139.716 110.164,139.124 110.711 C 138.506 111.281,137.788 111.604,137.437 111.469 C 137.101 111.340,136.702 111.435,136.551 111.679 C 136.368 111.975,136.464 112.010,136.838 111.782 C 137.147 111.595,136.861 112.017,136.201 112.721 C 135.542 113.424,134.804 114.000,134.561 114.000 C 134.318 114.000,133.579 114.516,132.918 115.147 C 132.258 115.778,131.525 116.363,131.289 116.447 C 131.052 116.531,129.967 117.447,128.878 118.482 C 127.788 119.517,126.785 120.252,126.648 120.115 C 126.512 119.978,126.400 120.177,126.400 120.557 C 126.400 120.937,126.220 121.136,126.000 121.000 C 125.780 120.864,125.600 120.967,125.600 121.228 C 125.600 121.874,121.930 125.577,121.276 125.590 C 120.988 125.595,120.864 125.780,121.000 126.000 C 121.136 126.220,120.937 126.400,120.557 126.400 C 120.177 126.400,119.978 126.512,120.115 126.648 C 120.252 126.785,119.517 127.788,118.482 128.878 C 117.447 129.967,116.531 131.052,116.447 131.289 C 116.363 131.525,115.778 132.258,115.147 132.918 C 114.516 133.579,114.000 134.318,114.000 134.561 C 114.000 134.804,113.424 135.542,112.721 136.201 C 112.017 136.861,111.595 137.147,111.782 136.838 C 112.010 136.464,111.975 136.368,111.679 136.551 C 111.435 136.702,111.340 137.101,111.469 137.437 C 111.604 137.788,111.281 138.506,110.711 139.124 C 110.164 139.716,109.602 140.526,109.461 140.925 C 109.321 141.324,109.026 141.540,108.807 141.405 C 108.578 141.263,108.510 141.420,108.646 141.776 C 108.785 142.139,108.620 142.494,108.244 142.639 C 107.892 142.773,107.704 143.045,107.826 143.242 C 107.948 143.439,107.857 143.600,107.624 143.600 C 107.391 143.600,107.200 143.971,107.200 144.424 C 107.200 144.877,107.025 145.139,106.812 145.007 C 106.598 144.875,106.309 145.223,106.169 145.781 C 106.029 146.338,105.756 146.696,105.562 146.576 C 105.368 146.457,105.307 146.615,105.428 146.928 C 105.548 147.241,105.366 147.604,105.023 147.736 C 104.680 147.867,104.400 148.251,104.400 148.587 C 104.400 148.924,104.199 149.200,103.953 149.200 C 103.706 149.200,103.599 149.551,103.712 149.986 C 103.832 150.445,103.731 150.737,103.468 150.686 C 103.221 150.639,102.957 151.008,102.881 151.506 C 102.805 152.004,102.613 152.332,102.454 152.234 C 102.296 152.136,102.126 152.582,102.077 153.227 C 101.995 154.299,100.794 156.905,99.994 157.749 C 99.811 157.941,99.751 158.327,99.859 158.608 C 99.966 158.889,99.862 159.238,99.627 159.383 C 99.392 159.528,99.200 160.076,99.200 160.600 C 99.200 161.124,99.020 161.664,98.800 161.800 C 98.580 161.936,98.400 162.497,98.400 163.047 C 98.400 163.612,98.226 163.940,98.000 163.800 C 97.762 163.653,97.600 164.129,97.600 164.976 C 97.600 165.759,97.420 166.400,97.200 166.400 C 96.980 166.400,96.800 166.839,96.800 167.376 C 96.800 167.913,96.620 168.464,96.400 168.600 C 96.180 168.736,96.000 169.366,96.000 170.000 C 96.000 170.634,95.820 171.264,95.600 171.400 C 95.380 171.536,95.200 172.277,95.200 173.047 C 95.200 173.879,95.038 174.347,94.800 174.200 C 94.558 174.051,94.400 174.596,94.400 175.576 C 94.400 176.469,94.238 177.200,94.040 177.200 C 93.842 177.200,93.551 179.453,93.392 182.206 C 93.233 184.960,92.945 187.310,92.752 187.430 C 92.292 187.714,92.292 212.286,92.752 212.570 C 92.945 212.690,93.233 215.040,93.392 217.794 C 93.551 220.547,93.842 222.800,94.040 222.800 C 94.238 222.800,94.400 223.520,94.400 224.400 C 94.400 225.280,94.580 226.000,94.800 226.000 C 95.020 226.000,95.200 226.630,95.200 227.400 C 95.200 228.170,95.380 228.800,95.600 228.800 C 95.820 228.800,96.000 229.329,96.000 229.976 C 96.000 230.623,96.180 231.264,96.400 231.400 C 96.620 231.536,96.800 232.072,96.800 232.590 C 96.800 233.109,96.974 233.593,97.187 233.667 C 97.400 233.740,97.618 234.373,97.670 235.072 C 97.723 235.772,97.909 236.256,98.083 236.149 C 98.257 236.041,98.400 236.326,98.400 236.782 C 98.400 237.238,98.569 237.923,98.776 238.305 C 99.183 239.058,99.616 240.853,99.483 241.239 C 99.437 241.370,99.606 241.730,99.857 242.039 C 100.877 243.290,101.993 245.671,102.077 246.773 C 102.126 247.418,102.309 247.856,102.483 247.749 C 102.657 247.641,102.800 247.798,102.800 248.097 C 102.800 248.851,103.735 250.793,104.100 250.797 C 104.265 250.799,104.400 251.076,104.400 251.413 C 104.400 251.749,104.661 252.125,104.981 252.248 C 105.300 252.370,105.764 253.085,106.012 253.835 C 106.259 254.586,106.628 255.200,106.831 255.200 C 107.034 255.200,107.200 255.388,107.200 255.617 C 107.200 255.846,107.564 256.425,108.010 256.903 C 108.455 257.381,108.732 258.001,108.624 258.281 C 108.517 258.561,108.637 258.748,108.891 258.695 C 109.145 258.643,109.426 258.940,109.516 259.356 C 109.607 259.772,110.133 260.533,110.687 261.046 C 111.283 261.598,111.598 262.228,111.459 262.589 C 111.331 262.925,111.408 263.200,111.631 263.200 C 112.185 263.200,114.000 265.055,114.000 265.621 C 114.000 265.873,114.540 266.583,115.200 267.200 C 115.860 267.817,116.400 268.489,116.400 268.695 C 116.400 268.901,117.288 269.981,118.373 271.095 C 119.458 272.209,120.238 273.229,120.106 273.360 C 119.975 273.492,120.102 273.600,120.389 273.600 C 121.170 273.600,126.003 278.466,125.718 278.967 C 125.583 279.205,125.618 279.267,125.798 279.105 C 125.977 278.943,127.208 279.888,128.533 281.205 C 129.859 282.522,131.109 283.600,131.311 283.600 C 131.513 283.600,132.183 284.140,132.800 284.800 C 133.417 285.460,134.111 286.000,134.342 286.000 C 134.907 286.000,136.775 287.892,136.491 288.176 C 136.368 288.299,136.670 288.400,137.162 288.400 C 138.170 288.400,139.310 289.340,138.881 289.817 C 138.726 289.988,138.826 289.998,139.103 289.839 C 139.397 289.670,139.705 289.809,139.846 290.175 C 139.978 290.519,140.437 290.800,140.866 290.800 C 141.296 290.800,141.536 290.980,141.400 291.200 C 141.264 291.420,141.523 291.600,141.976 291.600 C 142.429 291.600,142.800 291.791,142.800 292.024 C 142.800 292.257,142.980 292.336,143.200 292.200 C 143.420 292.064,143.600 292.154,143.600 292.399 C 143.600 292.644,144.386 293.193,145.347 293.618 C 146.308 294.043,147.320 294.663,147.596 294.995 C 147.872 295.328,148.346 295.600,148.649 295.600 C 148.952 295.600,149.200 295.759,149.200 295.953 C 149.200 296.308,150.477 296.834,151.600 296.942 C 151.930 296.974,152.161 297.207,152.114 297.459 C 152.063 297.731,152.348 297.834,152.814 297.712 C 153.658 297.492,158.000 299.421,158.000 300.017 C 158.000 300.214,158.252 300.278,158.560 300.160 C 158.867 300.042,159.238 300.138,159.383 300.373 C 159.528 300.608,160.076 300.800,160.600 300.800 C 161.124 300.800,161.664 300.980,161.800 301.200 C 161.936 301.420,162.497 301.600,163.047 301.600 C 163.597 301.600,163.960 301.742,163.852 301.915 C 163.745 302.088,164.140 302.267,164.729 302.311 C 165.716 302.386,166.704 302.736,168.495 303.647 C 168.877 303.841,169.642 304.000,170.195 304.000 C 170.748 304.000,171.200 304.180,171.200 304.400 C 171.200 304.620,171.830 304.800,172.600 304.800 C 173.370 304.800,174.000 304.980,174.000 305.200 C 174.000 305.420,174.720 305.600,175.600 305.600 C 176.480 305.600,177.200 305.780,177.200 306.000 C 177.200 306.222,178.259 306.400,179.576 306.400 C 180.883 306.400,182.064 306.580,182.200 306.800 C 182.336 307.020,183.596 307.200,185.000 307.200 C 186.404 307.200,187.664 307.380,187.800 307.600 C 188.138 308.148,212.400 308.148,212.400 307.600 C 212.400 307.375,213.525 307.200,214.976 307.200 C 216.393 307.200,217.664 307.020,217.800 306.800 C 217.936 306.580,219.117 306.400,220.424 306.400 C 221.741 306.400,222.800 306.222,222.800 306.000 C 222.800 305.780,223.419 305.600,224.176 305.600 C 224.933 305.600,225.664 305.420,225.800 305.200 C 225.936 304.980,226.656 304.800,227.400 304.800 C 228.144 304.800,228.864 304.620,229.000 304.400 C 229.136 304.180,229.676 304.000,230.200 304.000 C 230.724 304.000,231.264 303.820,231.400 303.600 C 231.536 303.380,232.072 303.200,232.590 303.200 C 233.109 303.200,233.593 303.026,233.667 302.813 C 233.740 302.600,234.373 302.382,235.072 302.330 C 235.772 302.277,236.256 302.091,236.149 301.917 C 236.041 301.743,236.326 301.600,236.782 301.600 C 237.238 301.600,237.923 301.431,238.305 301.224 C 238.926 300.888,240.884 300.319,241.715 300.233 C 241.888 300.215,242.158 300.018,242.315 299.795 C 242.871 299.005,246.370 297.499,247.165 297.707 C 247.650 297.834,247.938 297.734,247.886 297.459 C 247.839 297.207,248.070 296.974,248.400 296.942 C 249.523 296.834,250.800 296.308,250.800 295.953 C 250.800 295.759,251.048 295.600,251.351 295.600 C 251.654 295.600,252.123 295.334,252.392 295.009 C 252.662 294.684,253.854 293.943,255.041 293.362 C 256.229 292.781,257.200 292.147,257.200 291.953 C 257.200 291.759,257.560 291.600,258.000 291.600 C 258.440 291.600,258.800 291.420,258.800 291.200 C 258.800 290.980,259.045 290.800,259.345 290.800 C 259.645 290.800,260.387 290.305,260.993 289.700 C 261.599 289.095,262.342 288.598,262.644 288.596 C 262.946 288.593,263.232 288.413,263.278 288.196 C 263.409 287.590,265.105 286.000,265.621 286.000 C 265.873 286.000,266.583 285.460,267.200 284.800 C 267.817 284.140,268.534 283.600,268.795 283.600 C 269.056 283.600,270.268 282.565,271.488 281.300 C 272.708 280.035,273.863 279.045,274.053 279.100 C 274.244 279.155,274.400 278.968,274.400 278.685 C 274.400 278.035,278.060 274.400,278.714 274.400 C 278.981 274.400,279.155 274.244,279.100 274.053 C 279.045 273.863,280.035 272.708,281.300 271.488 C 282.565 270.268,283.600 269.056,283.600 268.795 C 283.600 268.534,284.140 267.817,284.800 267.200 C 285.460 266.583,286.000 265.873,286.000 265.621 C 286.000 265.163,287.715 263.262,288.283 263.091 C 288.449 263.041,288.588 262.796,288.592 262.547 C 288.597 262.298,289.095 261.599,289.700 260.993 C 290.305 260.387,290.800 259.645,290.800 259.345 C 290.800 259.045,290.980 258.800,291.200 258.800 C 291.420 258.800,291.600 258.440,291.600 258.000 C 291.600 257.560,291.759 257.200,291.953 257.200 C 292.147 257.200,292.781 256.229,293.362 255.041 C 293.943 253.854,294.684 252.662,295.009 252.392 C 295.334 252.123,295.600 251.654,295.600 251.351 C 295.600 251.048,295.759 250.800,295.953 250.800 C 296.308 250.800,296.834 249.523,296.942 248.400 C 296.974 248.070,297.207 247.839,297.459 247.886 C 297.734 247.938,297.834 247.650,297.707 247.165 C 297.499 246.370,299.005 242.871,299.795 242.315 C 300.018 242.158,300.215 241.888,300.233 241.715 C 300.319 240.884,300.888 238.926,301.224 238.305 C 301.431 237.923,301.600 237.238,301.600 236.782 C 301.600 236.326,301.743 236.041,301.917 236.149 C 302.091 236.256,302.277 235.772,302.330 235.072 C 302.382 234.373,302.600 233.740,302.813 233.667 C 303.026 233.593,303.200 233.109,303.200 232.590 C 303.200 232.072,303.380 231.536,303.600 231.400 C 303.820 231.264,304.000 230.724,304.000 230.200 C 304.000 229.676,304.180 229.136,304.400 229.000 C 304.620 228.864,304.800 228.144,304.800 227.400 C 304.800 226.656,304.980 225.936,305.200 225.800 C 305.420 225.664,305.600 224.933,305.600 224.176 C 305.600 223.419,305.780 222.800,306.000 222.800 C 306.222 222.800,306.400 221.741,306.400 220.424 C 306.400 219.117,306.580 217.936,306.800 217.800 C 307.020 217.664,307.200 216.393,307.200 214.976 C 307.200 213.525,307.375 212.400,307.600 212.400 C 307.858 212.400,308.000 208.075,308.000 200.224 C 308.000 192.537,307.852 187.956,307.600 187.800 C 307.380 187.664,307.200 186.404,307.200 185.000 C 307.200 183.596,307.020 182.336,306.800 182.200 C 306.580 182.064,306.400 180.883,306.400 179.576 C 306.400 178.259,306.222 177.200,306.000 177.200 C 305.780 177.200,305.600 176.480,305.600 175.600 C 305.600 174.720,305.420 174.000,305.200 174.000 C 304.980 174.000,304.800 173.370,304.800 172.600 C 304.800 171.830,304.620 171.200,304.400 171.200 C 304.180 171.200,304.000 170.748,304.000 170.195 C 304.000 169.642,303.841 168.877,303.647 168.495 C 302.736 166.704,302.386 165.716,302.311 164.729 C 302.267 164.140,302.088 163.745,301.915 163.852 C 301.742 163.960,301.600 163.597,301.600 163.047 C 301.600 162.497,301.420 161.936,301.200 161.800 C 300.980 161.664,300.800 161.124,300.800 160.600 C 300.800 160.076,300.608 159.528,300.373 159.383 C 300.138 159.238,300.042 158.867,300.160 158.560 C 300.278 158.252,300.214 158.000,300.017 158.000 C 299.421 158.000,297.492 153.658,297.712 152.814 C 297.834 152.348,297.731 152.063,297.459 152.114 C 297.207 152.161,296.974 151.930,296.942 151.600 C 296.834 150.477,296.308 149.200,295.953 149.200 C 295.759 149.200,295.600 148.952,295.600 148.649 C 295.600 148.346,295.328 147.872,294.995 147.596 C 294.663 147.320,294.043 146.308,293.618 145.347 C 293.193 144.386,292.644 143.600,292.399 143.600 C 292.154 143.600,292.064 143.420,292.200 143.200 C 292.336 142.980,292.257 142.800,292.024 142.800 C 291.791 142.800,291.600 142.429,291.600 141.976 C 291.600 141.523,291.420 141.264,291.200 141.400 C 290.980 141.536,290.800 141.296,290.800 140.866 C 290.800 140.437,290.519 139.978,290.175 139.846 C 289.809 139.705,289.670 139.397,289.839 139.103 C 289.998 138.826,289.988 138.726,289.817 138.881 C 289.340 139.310,288.400 138.170,288.400 137.162 C 288.400 136.670,288.299 136.368,288.176 136.491 C 287.892 136.775,286.000 134.907,286.000 134.342 C 286.000 134.111,285.460 133.417,284.800 132.800 C 284.140 132.183,283.600 131.513,283.600 131.311 C 283.600 131.109,282.522 129.859,281.205 128.533 C 279.888 127.208,278.943 125.977,279.105 125.798 C 279.267 125.618,279.205 125.583,278.967 125.718 C 278.466 126.003,273.600 121.170,273.600 120.389 C 273.600 120.102,273.492 119.975,273.360 120.106 C 273.229 120.238,272.209 119.458,271.095 118.373 C 269.981 117.288,268.901 116.400,268.695 116.400 C 268.489 116.400,267.817 115.860,267.200 115.200 C 266.583 114.540,265.873 114.000,265.621 114.000 C 265.055 114.000,263.200 112.185,263.200 111.631 C 263.200 111.408,262.925 111.331,262.589 111.459 C 262.228 111.598,261.598 111.283,261.046 110.687 C 260.533 110.133,259.772 109.607,259.356 109.516 C 258.940 109.426,258.643 109.145,258.695 108.891 C 258.748 108.637,258.561 108.517,258.281 108.624 C 258.001 108.732,257.381 108.455,256.903 108.010 C 256.425 107.564,255.846 107.200,255.617 107.200 C 255.388 107.200,255.200 107.034,255.200 106.831 C 255.200 106.628,254.586 106.259,253.835 106.012 C 253.085 105.764,252.370 105.300,252.248 104.981 C 252.125 104.661,251.749 104.400,251.413 104.400 C 251.076 104.400,250.799 104.265,250.797 104.100 C 250.793 103.735,248.851 102.800,248.097 102.800 C 247.798 102.800,247.641 102.657,247.749 102.483 C 247.856 102.309,247.418 102.126,246.773 102.077 C 245.791 102.002,244.139 101.274,242.200 100.062 C 241.980 99.925,241.710 99.795,241.600 99.774 C 240.375 99.536,238.866 99.079,238.305 98.776 C 237.923 98.569,237.238 98.400,236.782 98.400 C 236.326 98.400,236.041 98.257,236.149 98.083 C 236.256 97.909,235.772 97.723,235.072 97.670 C 234.373 97.618,233.740 97.400,233.667 97.187 C 233.593 96.974,233.109 96.800,232.590 96.800 C 232.072 96.800,231.536 96.620,231.400 96.400 C 231.264 96.180,230.623 96.000,229.976 96.000 C 229.329 96.000,228.800 95.820,228.800 95.600 C 228.800 95.380,228.170 95.200,227.400 95.200 C 226.630 95.200,226.000 95.020,226.000 94.800 C 226.000 94.580,225.280 94.400,224.400 94.400 C 223.520 94.400,222.800 94.238,222.800 94.040 C 222.800 93.842,220.547 93.551,217.794 93.392 C 215.040 93.233,212.690 92.945,212.570 92.752 C 212.451 92.558,206.794 92.400,200.000 92.400 C 193.206 92.400,187.549 92.558,187.430 92.752 M210.000 124.800 C 210.000 125.022,211.059 125.200,212.376 125.200 C 213.683 125.200,214.864 125.380,215.000 125.600 C 215.136 125.820,215.856 126.000,216.600 126.000 C 217.344 126.000,218.064 126.180,218.200 126.400 C 218.336 126.620,219.056 126.800,219.800 126.800 C 220.544 126.800,221.264 126.980,221.400 127.200 C 221.536 127.420,222.076 127.600,222.600 127.600 C 223.124 127.600,223.669 127.789,223.812 128.019 C 223.954 128.250,224.460 128.385,224.935 128.319 C 225.411 128.254,225.764 128.398,225.720 128.641 C 225.671 128.909,226.047 129.004,226.682 128.882 C 227.385 128.748,227.892 128.911,228.236 129.381 C 228.517 129.766,228.939 129.961,229.173 129.816 C 229.411 129.670,229.600 129.850,229.600 130.223 C 229.600 130.689,229.836 130.832,230.374 130.691 C 230.839 130.569,231.240 130.727,231.378 131.086 C 231.505 131.417,231.873 131.581,232.203 131.454 C 232.565 131.315,232.800 131.456,232.800 131.813 C 232.800 132.148,233.171 132.400,233.666 132.400 C 234.718 132.400,237.600 133.628,237.600 134.077 C 237.600 134.255,237.864 134.400,238.186 134.400 C 238.508 134.400,238.965 134.760,239.200 135.200 C 239.435 135.640,239.864 136.000,240.153 136.000 C 241.025 136.000,242.983 137.117,243.990 138.190 C 244.512 138.745,245.162 139.200,245.434 139.200 C 245.706 139.200,246.365 139.718,246.898 140.352 C 247.431 140.986,248.212 141.615,248.634 141.750 C 249.504 142.029,258.800 151.289,258.800 151.877 C 258.800 152.088,259.250 152.683,259.800 153.200 C 260.350 153.717,260.800 154.347,260.800 154.600 C 260.800 154.853,261.255 155.488,261.810 156.010 C 262.883 157.017,264.000 158.975,264.000 159.847 C 264.000 160.136,264.360 160.565,264.800 160.800 C 265.240 161.035,265.600 161.492,265.600 161.814 C 265.600 162.136,265.745 162.400,265.923 162.400 C 266.372 162.400,267.600 165.282,267.600 166.334 C 267.600 166.810,267.760 167.200,267.957 167.200 C 268.153 167.200,268.428 167.657,268.568 168.216 C 268.711 168.786,269.008 169.118,269.244 168.973 C 269.505 168.812,269.615 169.072,269.533 169.656 C 269.449 170.250,269.585 170.563,269.900 170.500 C 270.175 170.445,270.400 170.760,270.400 171.200 C 270.400 171.640,270.549 172.000,270.731 172.000 C 270.913 172.000,270.981 172.547,270.883 173.216 C 270.760 174.053,270.861 174.396,271.205 174.316 C 271.724 174.196,272.866 178.601,272.429 179.038 C 272.303 179.164,272.464 179.207,272.786 179.133 C 273.230 179.032,273.471 179.691,273.786 181.872 C 274.014 183.452,274.335 184.877,274.500 185.039 C 274.665 185.201,274.800 186.364,274.800 187.624 C 274.800 189.291,274.963 189.977,275.400 190.145 C 275.910 190.340,276.000 191.813,276.000 200.000 C 276.000 208.187,275.910 209.660,275.400 209.855 C 274.963 210.023,274.800 210.709,274.800 212.376 C 274.800 213.636,274.665 214.799,274.500 214.961 C 274.335 215.123,274.014 216.548,273.786 218.128 C 273.546 219.791,273.188 220.965,272.935 220.917 C 272.683 220.868,272.386 221.839,272.230 223.217 C 272.032 224.969,271.799 225.600,271.350 225.600 C 270.930 225.600,270.767 225.943,270.826 226.700 C 270.924 227.946,270.395 229.491,269.807 229.676 C 269.590 229.744,269.470 230.135,269.539 230.544 C 269.608 230.953,269.489 231.179,269.274 231.046 C 268.841 230.778,268.283 231.887,268.596 232.394 C 268.706 232.571,268.526 232.819,268.198 232.946 C 267.869 233.072,267.600 233.620,267.600 234.164 C 267.600 234.708,267.408 235.272,267.173 235.417 C 266.938 235.562,266.831 235.905,266.936 236.178 C 267.041 236.452,266.784 236.924,266.364 237.226 C 265.944 237.529,265.600 238.001,265.600 238.274 C 265.600 238.548,265.240 238.965,264.800 239.200 C 264.360 239.435,264.000 239.864,264.000 240.153 C 264.000 241.025,262.883 242.983,261.810 243.990 C 261.255 244.512,260.800 245.162,260.800 245.434 C 260.800 245.706,260.270 246.375,259.622 246.920 C 258.974 247.465,258.555 248.021,258.689 248.156 C 258.824 248.291,256.565 250.771,253.668 253.668 C 250.771 256.565,248.291 258.824,248.156 258.689 C 248.021 258.555,247.465 258.974,246.920 259.622 C 246.375 260.270,245.706 260.800,245.434 260.800 C 245.162 260.800,244.512 261.255,243.990 261.810 C 242.983 262.883,241.025 264.000,240.153 264.000 C 239.864 264.000,239.435 264.360,239.200 264.800 C 238.965 265.240,238.548 265.600,238.274 265.600 C 238.001 265.600,237.529 265.944,237.226 266.364 C 236.924 266.784,236.452 267.041,236.178 266.936 C 235.905 266.831,235.562 266.938,235.417 267.173 C 235.272 267.408,234.708 267.600,234.164 267.600 C 233.620 267.600,233.072 267.869,232.946 268.198 C 232.819 268.526,232.571 268.706,232.394 268.596 C 231.887 268.283,230.778 268.841,231.046 269.274 C 231.179 269.489,230.953 269.608,230.544 269.539 C 230.135 269.470,229.768 269.581,229.730 269.787 C 229.624 270.348,227.945 270.924,226.700 270.826 C 225.943 270.767,225.600 270.930,225.600 271.350 C 225.600 271.799,224.969 272.032,223.217 272.230 C 221.839 272.386,220.868 272.683,220.917 272.935 C 220.965 273.188,219.791 273.546,218.128 273.786 C 216.548 274.014,215.123 274.335,214.961 274.500 C 214.799 274.665,213.636 274.800,212.376 274.800 C 210.709 274.800,210.023 274.963,209.855 275.400 C 209.660 275.910,208.187 276.000,200.000 276.000 C 191.813 276.000,190.340 275.910,190.145 275.400 C 189.977 274.963,189.291 274.800,187.624 274.800 C 186.364 274.800,185.201 274.665,185.039 274.500 C 184.877 274.335,183.452 274.014,181.872 273.786 C 179.691 273.471,179.032 273.230,179.133 272.786 C 179.207 272.464,179.164 272.303,179.038 272.429 C 178.601 272.866,174.196 271.724,174.316 271.205 C 174.396 270.861,174.053 270.760,173.216 270.883 C 172.547 270.981,172.000 270.913,172.000 270.731 C 172.000 270.549,171.640 270.400,171.200 270.400 C 170.760 270.400,170.445 270.175,170.500 269.900 C 170.563 269.585,170.250 269.449,169.656 269.533 C 169.072 269.615,168.812 269.505,168.973 269.244 C 169.118 269.008,168.786 268.711,168.216 268.568 C 167.657 268.428,167.200 268.153,167.200 267.957 C 167.200 267.760,166.810 267.600,166.334 267.600 C 165.282 267.600,162.400 266.372,162.400 265.923 C 162.400 265.745,162.136 265.600,161.814 265.600 C 161.492 265.600,161.035 265.240,160.800 264.800 C 160.565 264.360,160.136 264.000,159.847 264.000 C 158.975 264.000,157.017 262.883,156.010 261.810 C 155.488 261.255,154.853 260.800,154.600 260.800 C 154.347 260.800,153.717 260.350,153.200 259.800 C 152.683 259.250,152.088 258.800,151.877 258.800 C 151.289 258.800,142.029 249.504,141.750 248.634 C 141.615 248.212,140.986 247.431,140.352 246.898 C 139.718 246.365,139.200 245.706,139.200 245.434 C 139.200 245.162,138.745 244.512,138.190 243.990 C 137.117 242.983,136.000 241.025,136.000 240.153 C 136.000 239.864,135.640 239.435,135.200 239.200 C 134.760 238.965,134.400 238.508,134.400 238.186 C 134.400 237.864,134.255 237.600,134.077 237.600 C 133.628 237.600,132.400 234.718,132.400 233.666 C 132.400 233.171,132.148 232.800,131.813 232.800 C 131.456 232.800,131.315 232.565,131.454 232.203 C 131.581 231.873,131.417 231.505,131.086 231.378 C 130.727 231.240,130.569 230.839,130.691 230.374 C 130.832 229.836,130.689 229.600,130.223 229.600 C 129.850 229.600,129.670 229.411,129.816 229.173 C 129.961 228.939,129.766 228.517,129.381 228.236 C 128.911 227.892,128.748 227.385,128.882 226.682 C 129.004 226.047,128.909 225.671,128.641 225.720 C 128.398 225.764,128.254 225.411,128.319 224.935 C 128.385 224.460,128.250 223.954,128.019 223.812 C 127.789 223.669,127.600 223.124,127.600 222.600 C 127.600 222.076,127.420 221.536,127.200 221.400 C 126.980 221.264,126.800 220.544,126.800 219.800 C 126.800 219.056,126.620 218.336,126.400 218.200 C 126.180 218.064,126.000 217.344,126.000 216.600 C 126.000 215.856,125.820 215.136,125.600 215.000 C 125.380 214.864,125.200 213.683,125.200 212.376 C 125.200 211.059,125.022 210.000,124.800 210.000 C 124.544 210.000,124.400 206.400,124.400 200.000 C 124.400 193.600,124.544 190.000,124.800 190.000 C 125.022 190.000,125.200 188.941,125.200 187.624 C 125.200 186.317,125.380 185.136,125.600 185.000 C 125.820 184.864,126.000 184.144,126.000 183.400 C 126.000 182.656,126.180 181.936,126.400 181.800 C 126.620 181.664,126.800 180.923,126.800 180.153 C 126.800 179.321,126.962 178.853,127.200 179.000 C 127.438 179.147,127.600 178.679,127.600 177.847 C 127.600 177.077,127.796 176.326,128.035 176.178 C 128.274 176.031,128.381 175.570,128.272 175.155 C 128.153 174.698,128.282 174.400,128.600 174.400 C 128.931 174.400,129.047 174.099,128.912 173.587 C 128.790 173.118,128.992 172.451,129.389 172.012 C 129.768 171.593,129.957 171.055,129.809 170.815 C 129.660 170.574,129.776 170.429,130.070 170.490 C 130.370 170.552,130.600 170.253,130.600 169.800 C 130.600 169.360,130.852 168.802,131.161 168.561 C 131.470 168.319,131.594 167.914,131.438 167.661 C 131.269 167.388,131.408 167.200,131.776 167.200 C 132.183 167.200,132.410 166.817,132.429 166.100 C 132.445 165.495,132.803 164.460,133.223 163.800 C 133.644 163.140,134.166 162.195,134.384 161.700 C 134.602 161.205,134.931 160.800,135.115 160.800 C 135.299 160.800,135.826 159.945,136.284 158.900 C 136.743 157.855,137.587 156.564,138.159 156.030 C 138.732 155.497,139.200 154.889,139.200 154.679 C 139.200 153.339,153.339 139.200,154.679 139.200 C 154.889 139.200,155.497 138.732,156.030 138.159 C 156.564 137.587,157.855 136.743,158.900 136.284 C 159.945 135.826,160.800 135.299,160.800 135.115 C 160.800 134.931,161.205 134.602,161.700 134.384 C 162.195 134.166,163.140 133.644,163.800 133.223 C 164.460 132.803,165.495 132.445,166.100 132.429 C 166.817 132.410,167.200 132.183,167.200 131.776 C 167.200 131.408,167.388 131.269,167.661 131.438 C 167.914 131.594,168.319 131.470,168.561 131.161 C 168.802 130.852,169.360 130.600,169.800 130.600 C 170.253 130.600,170.552 130.370,170.490 130.070 C 170.429 129.776,170.574 129.660,170.815 129.809 C 171.055 129.957,171.593 129.768,172.012 129.389 C 172.451 128.992,173.118 128.790,173.587 128.912 C 174.099 129.047,174.400 128.931,174.400 128.600 C 174.400 128.282,174.698 128.153,175.155 128.272 C 175.570 128.381,176.031 128.274,176.178 128.035 C 176.326 127.796,177.077 127.600,177.847 127.600 C 178.679 127.600,179.147 127.438,179.000 127.200 C 178.853 126.962,179.321 126.800,180.153 126.800 C 180.923 126.800,181.664 126.620,181.800 126.400 C 181.936 126.180,182.656 126.000,183.400 126.000 C 184.144 126.000,184.864 125.820,185.000 125.600 C 185.136 125.380,186.317 125.200,187.624 125.200 C 188.941 125.200,190.000 125.022,190.000 124.800 C 190.000 124.544,193.600 124.400,200.000 124.400 C 206.400 124.400,210.000 124.544,210.000 124.800 " stroke="none" fill="#fcfcf4" fill-rule="evenodd"></path><path id="path1" d="" stroke="none" fill="#100fcf4" fill-rule="evenodd"></path><path id="path2" d="" stroke="none" fill="#100fcf4" fill-rule="evenodd"></path><path id="path3" d="" stroke="none" fill="#100fcf4" fill-rule="evenodd"></path><path id="path4" d="" stroke="none" fill="#100fcf4" fill-rule="evenodd"></path><path id="path5" d="" stroke="none" fill="#100fcf4" fill-rule="evenodd"></path><path id="path6" d="" stroke="none" fill="#100fcf4" fill-rule="evenodd"></path><path id="path7" d="" stroke="none" fill="#100fcf4" fill-rule="evenodd"></path><path id="path8" d="" stroke="none" fill="#100fcf4" fill-rule="evenodd"></path></g></svg>