<svg id="svg" version="1.1" xmlns="http://www.w3.org/2000/svg" xmlns:xlink="http://www.w3.org/1999/xlink" width="400" height="400" viewBox="0, 0, 400,400"><g id="svgg"><path id="path0" d="M41.800 3.200 C 41.664 3.420,40.573 3.600,39.376 3.600 C 38.179 3.600,37.200 3.780,37.200 4.000 C 37.200 4.220,36.480 4.400,35.600 4.400 C 34.720 4.400,34.000 4.580,34.000 4.800 C 34.000 5.020,33.460 5.200,32.800 5.200 C 32.140 5.200,31.600 5.380,31.600 5.600 C 31.600 5.820,31.060 6.000,30.400 6.000 C 29.740 6.000,29.200 6.180,29.200 6.400 C 29.200 6.620,28.840 6.800,28.400 6.800 C 27.960 6.800,27.600 6.980,27.600 7.200 C 27.600 7.420,27.150 7.600,26.600 7.600 C 25.961 7.600,25.600 7.825,25.600 8.224 C 25.600 8.567,25.418 8.735,25.196 8.598 C 24.555 8.202,23.200 8.794,23.200 9.470 C 23.200 9.860,22.974 9.999,22.585 9.849 C 22.186 9.697,21.843 9.928,21.610 10.507 C 21.412 10.998,21.239 11.179,21.225 10.909 C 21.182 10.074,19.211 11.217,18.959 12.223 C 18.813 12.804,18.506 13.048,18.068 12.934 C 17.261 12.723,14.635 15.030,14.230 16.306 C 14.072 16.804,13.775 17.108,13.571 16.982 C 13.367 16.856,13.200 17.053,13.200 17.419 C 13.200 17.857,12.987 18.004,12.579 17.847 C 12.223 17.711,12.063 17.778,12.203 18.005 C 12.337 18.222,12.239 18.400,11.984 18.400 C 11.148 18.400,9.200 20.855,9.200 21.909 C 9.200 22.472,9.091 22.824,8.958 22.691 C 8.545 22.278,6.715 24.401,6.951 25.018 C 7.085 25.365,6.937 25.600,6.587 25.600 C 6.264 25.600,6.000 25.870,6.000 26.200 C 6.000 26.530,5.820 26.800,5.600 26.800 C 5.380 26.800,5.200 27.070,5.200 27.400 C 5.200 27.730,5.020 28.000,4.800 28.000 C 4.580 28.000,4.400 28.349,4.400 28.776 C 4.400 29.203,4.220 29.664,4.000 29.800 C 3.780 29.936,3.600 30.397,3.600 30.824 C 3.600 31.251,3.420 31.600,3.200 31.600 C 2.980 31.600,2.800 31.960,2.800 32.400 C 2.800 32.840,2.620 33.200,2.400 33.200 C 2.180 33.200,2.000 33.740,2.000 34.400 C 2.000 35.060,1.820 35.600,1.600 35.600 C 1.380 35.600,1.200 36.125,1.200 36.767 C 1.200 37.408,0.975 38.008,0.700 38.100 C -0.028 38.343,-0.028 64.058,0.700 64.300 C 0.975 64.392,1.200 65.071,1.200 65.810 C 1.200 66.548,1.380 67.264,1.600 67.400 C 1.820 67.536,2.000 67.997,2.000 68.424 C 2.000 68.851,2.180 69.200,2.400 69.200 C 2.620 69.200,2.800 69.740,2.800 70.400 C 2.800 71.060,2.980 71.600,3.200 71.600 C 3.420 71.600,3.600 71.960,3.600 72.400 C 3.600 72.840,3.746 73.200,3.925 73.200 C 4.104 73.200,4.498 73.830,4.800 74.600 C 5.102 75.370,5.580 76.000,5.862 76.000 C 6.158 76.000,6.276 76.259,6.140 76.612 C 6.004 76.965,6.263 77.535,6.753 77.959 C 7.219 78.363,7.600 78.911,7.600 79.175 C 7.600 79.784,8.598 80.800,9.195 80.800 C 9.444 80.800,9.531 80.988,9.389 81.218 C 8.939 81.946,11.090 84.800,12.090 84.800 C 12.801 84.800,15.701 87.766,15.341 88.125 C 15.190 88.276,15.277 88.400,15.533 88.400 C 15.790 88.400,16.001 88.625,16.003 88.900 C 16.006 89.581,18.653 91.338,19.181 91.012 C 19.415 90.867,19.729 91.076,19.880 91.475 C 20.269 92.499,21.037 93.200,21.771 93.200 C 22.117 93.200,22.400 93.380,22.400 93.600 C 22.400 93.820,22.720 94.000,23.112 94.000 C 23.503 94.000,24.083 94.360,24.400 94.800 C 24.717 95.240,25.297 95.600,25.688 95.600 C 26.080 95.600,26.400 95.780,26.400 96.000 C 26.400 96.220,26.850 96.400,27.400 96.400 C 27.950 96.400,28.400 96.580,28.400 96.800 C 28.400 97.020,28.760 97.200,29.200 97.200 C 29.640 97.200,30.000 97.403,30.000 97.650 C 30.000 97.937,30.436 98.013,31.200 97.860 C 32.133 97.673,32.400 97.762,32.400 98.260 C 32.400 98.758,32.667 98.847,33.600 98.660 C 34.535 98.473,34.800 98.562,34.800 99.063 C 34.800 99.582,35.108 99.664,36.400 99.491 C 37.467 99.348,38.000 99.430,38.000 99.738 C 38.000 100.469,57.918 100.388,58.199 99.656 C 58.349 99.268,58.806 99.187,59.804 99.374 C 60.901 99.580,61.200 99.506,61.200 99.028 C 61.200 98.566,61.488 98.478,62.394 98.659 C 63.242 98.828,63.653 98.727,63.814 98.308 C 63.959 97.930,64.391 97.786,65.020 97.906 C 65.737 98.043,66.000 97.918,66.000 97.439 C 66.000 96.949,66.240 96.845,66.956 97.025 C 67.482 97.157,68.033 97.070,68.180 96.832 C 68.327 96.595,68.797 96.400,69.224 96.400 C 69.651 96.400,70.000 96.220,70.000 96.000 C 70.000 95.780,70.360 95.600,70.800 95.600 C 71.240 95.600,71.600 95.420,71.600 95.200 C 71.600 94.980,71.870 94.800,72.200 94.800 C 72.530 94.800,72.800 94.620,72.800 94.400 C 72.800 94.180,73.070 94.000,73.400 94.000 C 73.730 94.000,74.000 93.820,74.000 93.600 C 74.000 93.380,74.204 93.200,74.453 93.200 C 74.702 93.200,75.197 92.869,75.553 92.464 C 75.909 92.059,76.695 91.606,77.300 91.456 C 77.905 91.307,78.406 90.963,78.413 90.692 C 78.434 89.912,79.936 88.313,80.386 88.591 C 80.926 88.925,84.919 84.916,84.585 84.376 C 84.301 83.916,85.842 82.400,86.594 82.400 C 87.216 82.400,88.167 80.594,87.831 80.050 C 87.681 79.807,88.005 79.514,88.584 79.368 C 89.281 79.193,89.600 78.841,89.600 78.246 C 89.600 77.768,89.968 77.063,90.417 76.678 C 90.866 76.293,91.126 75.803,90.993 75.589 C 90.861 75.375,90.943 75.200,91.176 75.200 C 91.409 75.200,91.600 74.930,91.600 74.600 C 91.600 74.270,91.780 74.000,92.000 74.000 C 92.220 74.000,92.400 73.640,92.400 73.200 C 92.400 72.760,92.580 72.400,92.800 72.400 C 93.020 72.400,93.200 72.051,93.200 71.624 C 93.200 71.197,93.380 70.736,93.600 70.600 C 93.820 70.464,94.000 69.913,94.000 69.376 C 94.000 68.839,94.180 68.400,94.400 68.400 C 94.620 68.400,94.800 67.860,94.800 67.200 C 94.800 66.540,94.980 66.000,95.200 66.000 C 95.420 66.000,95.600 65.280,95.600 64.400 C 95.600 63.520,95.780 62.800,96.000 62.800 C 96.220 62.800,96.400 61.930,96.400 60.867 C 96.400 59.803,96.520 58.813,96.667 58.667 C 97.038 58.296,97.069 45.167,96.700 44.938 C 96.535 44.836,96.400 43.874,96.400 42.800 C 96.400 41.726,96.220 40.736,96.000 40.600 C 95.780 40.464,95.600 39.823,95.600 39.176 C 95.600 38.529,95.420 38.000,95.200 38.000 C 94.980 38.000,94.800 37.460,94.800 36.800 C 94.800 36.140,94.620 35.600,94.400 35.600 C 94.180 35.600,94.000 35.060,94.000 34.400 C 94.000 33.740,93.820 33.200,93.600 33.200 C 93.380 33.200,93.200 32.840,93.200 32.400 C 93.200 31.960,93.020 31.600,92.800 31.600 C 92.580 31.600,92.400 31.240,92.400 30.800 C 92.400 30.360,92.243 30.000,92.050 30.000 C 91.858 30.000,91.593 29.466,91.463 28.814 C 91.166 27.331,89.563 24.812,88.913 24.805 C 88.644 24.802,88.504 24.575,88.601 24.300 C 88.807 23.717,88.114 22.791,86.991 22.147 C 86.556 21.898,86.250 21.413,86.312 21.070 C 86.419 20.478,80.331 14.056,79.563 13.950 C 79.363 13.922,78.995 13.878,78.744 13.850 C 78.493 13.822,78.088 13.444,77.844 13.009 C 77.217 11.892,76.286 11.192,75.700 11.399 C 75.425 11.496,75.200 11.330,75.200 11.030 C 75.200 10.554,74.762 10.236,73.696 9.940 C 73.533 9.894,73.160 9.618,72.868 9.325 C 72.575 9.032,72.170 8.895,71.968 9.020 C 71.765 9.145,71.600 9.057,71.600 8.824 C 71.600 8.591,71.240 8.400,70.800 8.400 C 70.360 8.400,70.000 8.220,70.000 8.000 C 70.000 7.780,69.640 7.600,69.200 7.600 C 68.760 7.600,68.400 7.420,68.400 7.200 C 68.400 6.980,68.040 6.800,67.600 6.800 C 67.160 6.800,66.800 6.620,66.800 6.400 C 66.800 6.180,66.260 6.000,65.600 6.000 C 64.940 6.000,64.400 5.820,64.400 5.600 C 64.400 5.380,63.860 5.200,63.200 5.200 C 62.540 5.200,62.000 5.020,62.000 4.800 C 62.000 4.580,61.471 4.400,60.824 4.400 C 60.177 4.400,59.536 4.220,59.400 4.000 C 59.264 3.780,58.274 3.600,57.200 3.600 C 56.126 3.600,55.136 3.420,55.000 3.200 C 54.669 2.664,42.131 2.664,41.800 3.200 M288.800 120.500 C 288.800 120.665,287.180 120.800,285.200 120.800 C 282.153 120.800,281.600 120.899,281.600 121.446 C 281.600 121.996,281.272 122.051,279.400 121.817 C 277.931 121.634,277.200 121.685,277.200 121.971 C 277.200 122.207,276.480 122.400,275.600 122.400 C 274.493 122.400,274.000 122.573,274.000 122.962 C 274.000 123.387,273.609 123.471,272.400 123.309 C 271.349 123.168,270.800 123.250,270.800 123.547 C 270.800 123.796,270.260 124.000,269.600 124.000 C 268.940 124.000,268.400 124.180,268.400 124.400 C 268.400 124.620,267.860 124.800,267.200 124.800 C 266.409 124.800,266.000 125.001,266.000 125.390 C 266.000 125.832,265.699 125.920,264.800 125.740 C 264.052 125.590,263.600 125.665,263.600 125.937 C 263.600 126.178,263.332 126.272,263.003 126.146 C 262.663 126.015,262.301 126.192,262.161 126.558 C 262.025 126.911,261.484 127.200,260.957 127.200 C 260.431 127.200,260.000 127.363,260.000 127.563 C 260.000 127.762,259.640 127.831,259.200 127.716 C 258.753 127.599,258.400 127.704,258.400 127.953 C 258.400 128.199,258.040 128.400,257.600 128.400 C 257.160 128.400,256.800 128.580,256.800 128.800 C 256.800 129.020,256.440 129.200,256.000 129.200 C 255.560 129.200,255.200 129.380,255.200 129.600 C 255.200 129.820,254.840 130.000,254.400 130.000 C 253.960 130.000,253.600 130.180,253.600 130.400 C 253.600 130.620,253.240 130.800,252.800 130.800 C 252.360 130.800,252.000 130.958,252.000 131.151 C 252.000 131.345,251.460 131.727,250.800 132.000 C 250.140 132.273,249.600 132.655,249.600 132.849 C 249.600 133.042,249.240 133.200,248.800 133.200 C 248.360 133.200,248.000 133.336,248.000 133.502 C 248.000 133.669,247.471 134.039,246.825 134.325 C 246.133 134.631,245.598 135.206,245.525 135.723 C 245.442 136.302,245.163 136.560,244.702 136.483 C 243.935 136.354,242.670 137.404,242.279 138.493 C 242.133 138.901,241.786 139.093,241.436 138.959 C 240.871 138.742,238.004 141.183,237.997 141.887 C 237.993 142.398,232.155 148.000,231.628 148.000 C 230.782 148.000,229.200 150.213,229.200 151.395 C 229.200 151.728,228.883 152.000,228.496 152.000 C 227.710 152.000,226.646 153.428,227.003 154.004 C 227.287 154.465,223.630 158.400,222.917 158.400 C 222.633 158.400,222.445 158.610,222.500 158.867 C 222.555 159.124,222.196 159.545,221.702 159.803 C 221.209 160.061,220.892 160.392,220.999 160.539 C 221.106 160.686,221.004 160.650,220.772 160.459 C 220.488 160.224,220.392 155.610,220.476 146.256 C 220.544 138.635,220.465 132.400,220.300 132.400 C 220.135 132.400,220.000 132.061,220.000 131.646 C 220.000 131.177,219.471 130.640,218.603 130.228 C 217.754 129.825,217.110 129.180,216.960 128.583 C 216.807 127.972,216.427 127.600,215.957 127.600 C 215.540 127.600,215.200 127.465,215.200 127.300 C 215.200 126.788,141.502 127.111,141.185 127.624 C 141.034 127.868,140.796 128.053,140.655 128.034 C 139.904 127.934,139.578 128.099,138.442 129.160 C 137.669 129.883,137.200 130.713,137.200 131.360 C 137.200 131.932,137.020 132.400,136.800 132.400 C 136.534 132.400,136.400 176.000,136.400 262.400 C 136.400 376.454,136.472 392.400,136.987 392.400 C 137.337 392.400,137.485 392.635,137.351 392.982 C 137.118 393.590,138.842 395.600,139.596 395.600 C 139.834 395.600,140.444 395.873,140.953 396.206 C 141.869 396.806,222.129 397.204,222.722 396.611 C 222.838 396.495,223.179 396.400,223.480 396.400 C 224.338 396.400,226.899 393.634,226.647 392.979 C 226.516 392.636,226.664 392.400,227.013 392.400 C 227.527 392.400,227.600 382.726,227.600 314.400 C 227.600 262.667,227.735 236.400,228.000 236.400 C 228.222 236.400,228.400 235.333,228.400 234.000 C 228.400 232.537,228.570 231.600,228.835 231.600 C 229.121 231.600,229.178 231.052,229.000 230.000 C 228.779 228.692,228.845 228.400,229.365 228.400 C 229.804 228.400,230.000 228.030,230.000 227.200 C 230.000 226.540,230.180 226.000,230.400 226.000 C 230.620 226.000,230.800 225.640,230.800 225.200 C 230.800 224.760,230.980 224.400,231.200 224.400 C 231.420 224.400,231.600 223.950,231.600 223.400 C 231.600 222.850,231.780 222.400,232.000 222.400 C 232.220 222.400,232.400 222.040,232.400 221.600 C 232.400 221.160,232.580 220.800,232.800 220.800 C 233.020 220.800,233.200 220.440,233.200 220.000 C 233.200 219.560,233.359 219.200,233.553 219.200 C 233.897 219.200,234.530 217.704,234.443 217.100 C 234.419 216.935,234.691 216.800,235.047 216.800 C 235.522 216.800,235.642 216.533,235.501 215.794 C 235.346 214.985,235.498 214.740,236.276 214.545 C 236.979 214.369,237.210 214.070,237.121 213.451 C 237.006 212.650,238.265 211.200,239.075 211.200 C 239.267 211.200,239.688 210.815,240.012 210.344 C 240.541 209.573,241.115 208.994,243.800 206.525 C 244.240 206.120,244.804 205.431,245.053 204.994 C 245.302 204.557,245.763 204.245,246.077 204.300 C 246.392 204.355,246.998 204.085,247.424 203.700 C 247.851 203.315,248.695 202.745,249.300 202.432 C 249.905 202.120,250.400 201.715,250.400 201.532 C 250.400 201.350,250.760 201.200,251.200 201.200 C 251.640 201.200,252.000 201.020,252.000 200.800 C 252.000 200.580,252.360 200.400,252.800 200.400 C 253.240 200.400,253.600 200.220,253.600 200.000 C 253.600 199.780,253.960 199.600,254.400 199.600 C 254.840 199.600,255.200 199.420,255.200 199.200 C 255.200 198.980,255.560 198.800,256.000 198.800 C 256.449 198.800,256.800 198.533,256.800 198.192 C 256.800 197.744,257.062 197.651,257.800 197.836 C 258.571 198.029,258.800 197.932,258.800 197.412 C 258.800 196.870,259.037 196.788,260.000 197.000 C 260.755 197.166,261.200 197.103,261.200 196.832 C 261.200 196.580,262.035 196.400,263.200 196.400 C 264.300 196.400,265.200 196.220,265.200 196.000 C 265.200 195.770,266.440 195.600,268.120 195.600 C 269.858 195.600,271.234 195.406,271.520 195.120 C 271.893 194.747,272.107 194.747,272.480 195.120 C 272.780 195.420,274.270 195.600,276.456 195.600 C 278.379 195.600,280.064 195.780,280.200 196.000 C 280.336 196.220,281.146 196.400,282.000 196.400 C 282.854 196.400,283.675 196.598,283.825 196.840 C 283.980 197.091,284.594 197.181,285.249 197.050 C 286.133 196.873,286.400 196.968,286.400 197.460 C 286.400 197.958,286.667 198.047,287.600 197.860 C 288.499 197.680,288.800 197.768,288.800 198.210 C 288.800 198.535,289.160 198.800,289.600 198.800 C 290.040 198.800,290.400 199.001,290.400 199.247 C 290.400 199.496,290.753 199.601,291.200 199.484 C 291.734 199.345,292.000 199.472,292.000 199.867 C 292.000 200.210,292.288 200.403,292.685 200.327 C 293.061 200.254,293.807 200.601,294.343 201.097 C 294.879 201.594,295.561 202.000,295.858 202.000 C 296.156 202.000,296.400 202.180,296.400 202.400 C 296.400 202.620,296.643 202.800,296.941 202.800 C 297.238 202.800,298.046 203.340,298.737 204.000 C 299.428 204.660,300.264 205.200,300.596 205.200 C 300.928 205.200,301.203 205.425,301.206 205.700 C 301.210 206.044,301.326 206.020,301.579 205.621 C 301.869 205.162,302.052 205.286,302.460 206.221 C 302.744 206.869,303.318 207.670,303.736 208.000 C 305.439 209.344,308.400 212.515,308.400 212.994 C 308.400 213.276,308.783 213.607,309.252 213.729 C 309.803 213.873,310.023 214.164,309.875 214.550 C 309.749 214.878,310.355 216.519,311.223 218.195 C 312.090 219.871,312.800 221.503,312.800 221.822 C 312.800 222.140,313.073 222.400,313.408 222.400 C 313.855 222.400,313.949 222.662,313.765 223.396 C 313.591 224.092,313.700 224.464,314.127 224.627 C 314.578 224.800,314.681 225.224,314.517 226.231 C 314.339 227.331,314.426 227.600,314.961 227.600 C 315.529 227.600,315.588 227.894,315.362 229.600 C 315.130 231.349,315.186 231.600,315.807 231.600 C 316.462 231.600,316.496 231.957,316.242 236.200 C 316.057 239.296,316.103 240.800,316.384 240.800 C 316.671 240.800,316.800 264.324,316.800 316.504 C 316.800 391.774,316.805 392.210,317.600 392.707 C 318.040 392.982,318.400 393.522,318.400 393.907 C 318.400 394.699,319.831 395.751,320.416 395.390 C 320.627 395.260,320.800 395.433,320.800 395.776 C 320.800 396.133,321.142 396.400,321.600 396.400 C 322.040 396.400,322.400 396.535,322.400 396.700 C 322.400 396.865,338.645 397.000,358.500 397.000 L 394.600 397.000 395.558 396.135 C 396.085 395.659,396.756 395.362,397.048 395.474 C 397.768 395.750,398.933 394.523,398.650 393.786 C 398.519 393.444,398.757 392.984,399.211 392.700 C 400.164 392.105,400.494 209.200,399.543 209.200 C 399.212 209.200,399.144 207.758,399.296 204.000 C 399.475 199.592,399.417 198.800,398.918 198.800 C 398.444 198.800,398.355 198.272,398.464 196.100 C 398.570 193.994,398.481 193.425,398.061 193.513 C 397.637 193.602,397.580 193.196,397.798 191.613 C 398.024 189.968,397.965 189.600,397.476 189.600 C 397.007 189.600,396.923 189.250,397.091 188.000 C 397.232 186.949,397.150 186.400,396.853 186.400 C 396.591 186.400,396.400 185.724,396.400 184.800 C 396.400 183.920,396.220 183.200,396.000 183.200 C 395.780 183.200,395.600 182.660,395.600 182.000 C 395.600 181.340,395.420 180.800,395.200 180.800 C 394.980 180.800,394.800 180.361,394.800 179.824 C 394.800 179.287,394.620 178.736,394.400 178.600 C 394.180 178.464,394.000 177.913,394.000 177.376 C 394.000 176.839,393.820 176.400,393.600 176.400 C 393.380 176.400,393.200 176.040,393.200 175.600 C 393.200 175.160,393.020 174.800,392.800 174.800 C 392.580 174.800,392.400 174.517,392.400 174.171 C 392.400 173.826,392.138 173.281,391.817 172.960 C 391.496 172.639,391.328 172.131,391.444 171.831 C 391.622 171.367,390.848 169.587,388.257 164.503 C 388.006 164.010,387.665 163.605,387.500 163.603 C 387.335 163.601,387.200 163.240,387.200 162.800 C 387.200 162.360,387.020 162.000,386.800 162.000 C 386.580 162.000,386.400 161.807,386.400 161.571 C 386.400 161.084,385.176 159.762,384.829 159.874 C 384.703 159.914,384.654 159.685,384.720 159.365 C 384.850 158.728,383.905 157.600,383.241 157.600 C 383.012 157.600,382.904 157.375,383.001 157.100 C 383.218 156.484,382.440 155.440,381.500 155.088 C 381.115 154.943,380.800 154.453,380.800 153.999 C 380.800 153.167,378.365 150.400,377.632 150.400 C 377.415 150.400,376.927 149.745,376.547 148.944 C 375.702 147.164,371.208 142.711,370.522 142.975 C 370.249 143.079,369.902 142.965,369.751 142.721 C 369.571 142.429,369.669 142.387,370.038 142.600 C 370.347 142.777,370.240 142.556,369.800 142.108 C 369.360 141.660,368.848 141.317,368.663 141.346 C 368.477 141.376,368.117 141.048,367.863 140.617 C 367.130 139.377,366.502 138.800,365.887 138.800 C 365.573 138.800,364.885 138.291,364.358 137.669 C 363.443 136.589,362.142 135.801,361.500 135.936 C 361.335 135.971,361.200 135.751,361.200 135.447 C 361.200 134.948,359.853 134.248,359.100 134.357 C 358.935 134.381,358.800 134.130,358.800 133.800 C 358.800 133.470,358.564 133.200,358.275 133.200 C 357.987 133.200,357.364 132.840,356.892 132.400 C 356.420 131.960,355.846 131.600,355.617 131.600 C 355.388 131.600,355.200 131.420,355.200 131.200 C 355.200 130.980,354.840 130.800,354.400 130.800 C 353.960 130.800,353.600 130.620,353.600 130.400 C 353.600 130.180,353.240 130.000,352.800 130.000 C 352.360 130.000,352.000 129.820,352.000 129.600 C 352.000 129.380,351.640 129.200,351.200 129.200 C 350.760 129.200,350.400 129.020,350.400 128.800 C 350.400 128.580,350.040 128.400,349.600 128.400 C 349.160 128.400,348.800 128.220,348.800 128.000 C 348.800 127.780,348.451 127.600,348.024 127.600 C 347.597 127.600,347.128 127.408,346.983 127.173 C 346.838 126.938,346.489 126.834,346.208 126.941 C 345.927 127.049,345.501 126.941,345.262 126.702 C 344.518 125.958,342.019 125.245,341.740 125.697 C 341.591 125.939,341.342 125.839,341.125 125.451 C 340.924 125.093,340.319 124.800,339.780 124.800 C 339.241 124.800,338.800 124.620,338.800 124.400 C 338.800 124.180,338.271 124.000,337.624 124.000 C 336.977 124.000,336.324 123.800,336.173 123.556 C 336.012 123.296,335.339 123.203,334.549 123.331 C 333.541 123.494,333.200 123.404,333.200 122.975 C 333.200 122.571,332.724 122.400,331.600 122.400 C 330.705 122.400,330.000 122.207,330.000 121.961 C 330.000 121.660,329.245 121.609,327.600 121.800 C 325.552 122.038,325.200 121.985,325.200 121.439 C 325.200 120.912,324.688 120.800,322.267 120.800 C 320.653 120.800,319.204 120.671,319.047 120.513 C 318.663 120.130,288.800 120.117,288.800 120.500 M15.302 127.512 C 15.189 127.806,14.789 127.923,14.360 127.787 C 13.012 127.360,7.600 131.844,7.600 133.389 C 7.600 133.725,7.398 134.000,7.150 134.000 C 6.863 134.000,6.787 134.436,6.940 135.200 C 7.120 136.099,7.032 136.400,6.590 136.400 C 6.142 136.400,6.000 136.925,6.000 138.576 C 6.000 139.773,5.820 140.864,5.600 141.000 C 5.045 141.343,5.045 383.200,5.600 383.200 C 5.822 383.200,6.000 384.267,6.000 385.600 C 6.000 386.933,6.178 388.000,6.400 388.000 C 6.620 388.000,6.800 388.360,6.800 388.800 C 6.800 389.240,6.980 389.600,7.200 389.600 C 7.420 389.600,7.600 389.948,7.600 390.373 C 7.600 390.798,7.960 391.260,8.400 391.400 C 8.840 391.540,9.200 391.979,9.200 392.377 C 9.200 392.859,9.597 393.179,10.389 393.338 C 11.228 393.506,11.654 393.874,11.833 394.588 C 11.992 395.224,12.367 395.600,12.843 395.600 C 13.260 395.600,13.600 395.780,13.600 396.000 C 13.600 396.220,14.140 396.400,14.800 396.400 C 15.460 396.400,16.000 396.535,16.000 396.700 C 16.000 396.865,30.220 397.000,47.600 397.000 C 64.980 397.000,79.200 396.865,79.200 396.700 C 79.200 396.535,79.740 396.400,80.400 396.400 C 81.060 396.400,81.600 396.220,81.600 396.000 C 81.600 395.780,81.883 395.600,82.229 395.600 C 82.957 395.600,83.731 394.901,84.110 393.900 C 84.256 393.515,84.741 393.200,85.187 393.200 C 85.917 393.200,86.190 392.784,86.044 391.891 C 86.017 391.721,86.445 391.411,86.997 391.201 C 87.549 390.991,88.000 390.545,88.000 390.210 C 88.000 389.874,88.180 389.600,88.400 389.600 C 88.620 389.600,88.800 389.270,88.800 388.867 C 88.800 388.463,88.891 388.042,89.002 387.931 C 89.267 387.666,89.269 137.136,89.004 136.870 C 88.892 136.758,88.800 136.247,88.800 135.733 C 88.800 135.220,88.620 134.800,88.400 134.800 C 88.180 134.800,88.000 134.479,88.000 134.088 C 88.000 133.652,87.494 133.182,86.700 132.879 C 85.810 132.540,85.559 132.283,85.903 132.066 C 86.274 131.832,86.143 131.521,85.403 130.877 C 84.851 130.398,84.400 130.195,84.400 130.426 C 84.400 131.116,83.579 130.396,83.185 129.361 C 82.984 128.833,82.545 128.400,82.210 128.400 C 81.874 128.400,81.600 128.197,81.600 127.950 C 81.600 127.663,81.164 127.587,80.400 127.740 C 79.589 127.902,79.200 127.821,79.200 127.490 C 79.200 126.755,15.584 126.777,15.302 127.512 " stroke="none" fill="#fcfcf4" fill-rule="evenodd"></path><path id="path1" d="" stroke="none" fill="#100fcf4" fill-rule="evenodd"></path><path id="path2" d="" stroke="none" fill="#100fcf4" fill-rule="evenodd"></path><path id="path3" d="" stroke="none" fill="#100fcf4" fill-rule="evenodd"></path><path id="path4" d="" stroke="none" fill="#100fcf4" fill-rule="evenodd"></path><path id="path5" d="" stroke="none" fill="#100fcf4" fill-rule="evenodd"></path><path id="path6" d="" stroke="none" fill="#100fcf4" fill-rule="evenodd"></path><path id="path7" d="" stroke="none" fill="#100fcf4" fill-rule="evenodd"></path><path id="path8" d="" stroke="none" fill="#100fcf4" fill-rule="evenodd"></path></g></svg>